<svg xmlns="http://www.w3.org/2000/svg" width="1600" height="1050" viewBox="0 0 1600 1050">
  <defs>
    <pattern id="hatch" width="8" height="8" patternUnits="userSpaceOnUse" patternTransform="rotate(45)">
      <line x1="0" y1="0" x2="0" y2="8" stroke="#bbb" stroke-width="1"/>
    </pattern>
    <filter id="dropshadow" x="-5%" y="-5%" width="115%" height="115%">
      <feDropShadow dx="2" dy="2" stdDeviation="3" flood-color="#00000025"/>
    </filter>
    <marker id="dim-arrow" markerWidth="6" markerHeight="6" refX="5" refY="3" orient="auto">
      <path d="M0,0 L6,3 L0,6 Z" fill="#1a2744"/>
    </marker>
    <marker id="dim-arrow-r" markerWidth="6" markerHeight="6" refX="1" refY="3" orient="auto">
      <path d="M6,0 L0,3 L6,6 Z" fill="#1a2744"/>
    </marker>
  </defs>

  <!-- Background -->
  <rect width="1600" height="1050" fill="#f7f5f0"/>

  <!-- Title Block background -->
  <rect x="0" y="970" width="1600" height="80" fill="#1a2744"/>
  <rect x="0" y="960" width="1600" height="10" fill="#c8a400"/>

  <!-- Border -->
  <rect x="20" y="20" width="1560" height="940" fill="none" stroke="#1a2744" stroke-width="3"/>
  <rect x="28" y="28" width="1544" height="924" fill="none" stroke="#1a2744" stroke-width="1"/>

  <!-- Title -->
  <text x="800" y="64" font-family="Arial Black, Arial" font-size="26" font-weight="bold" fill="#1a2744" text-anchor="middle" letter-spacing="2">GROUND FLOOR PLAN</text>
  <text x="800" y="86" font-family="Arial, sans-serif" font-size="13" fill="#555" text-anchor="middle">HOUSE BUILDING PROJECT — Drawing No. HBP-GF-002 — Scale 1:50</text>

  <!-- ══════════════════════════════════════════
       GRID REFERENCE LINES (columns A-D, rows 1-2)
       ══════════════════════════════════════════ -->
  <!-- Column grid lines - vertical dashed -->
  <line x1="100" y1="100" x2="100" y2="920" stroke="#1a2744" stroke-width="1" stroke-dasharray="8,5" opacity="0.4"/>
  <line x1="480" y1="100" x2="480" y2="920" stroke="#1a2744" stroke-width="1" stroke-dasharray="8,5" opacity="0.4"/>
  <line x1="820" y1="100" x2="820" y2="920" stroke="#1a2744" stroke-width="1" stroke-dasharray="8,5" opacity="0.4"/>
  <line x1="1160" y1="100" x2="1160" y2="920" stroke="#1a2744" stroke-width="1" stroke-dasharray="8,5" opacity="0.4"/>
  <!-- Row grid lines - horizontal dashed -->
  <line x1="60" y1="155" x2="1540" y2="155" stroke="#1a2744" stroke-width="1" stroke-dasharray="8,5" opacity="0.4"/>
  <line x1="60" y1="540" x2="1540" y2="540" stroke="#1a2744" stroke-width="1" stroke-dasharray="8,5" opacity="0.4"/>
  <line x1="60" y1="900" x2="1540" y2="900" stroke="#1a2744" stroke-width="1" stroke-dasharray="8,5" opacity="0.4"/>

  <!-- Grid bubbles - columns -->
  <circle cx="100" cy="122" r="16" fill="#1a2744"/>
  <text x="100" y="127" font-family="Arial Black,Arial" font-size="14" font-weight="bold" fill="white" text-anchor="middle">A</text>
  <circle cx="480" cy="122" r="16" fill="#1a2744"/>
  <text x="480" y="127" font-family="Arial Black,Arial" font-size="14" font-weight="bold" fill="white" text-anchor="middle">B</text>
  <circle cx="820" cy="122" r="16" fill="#1a2744"/>
  <text x="820" y="127" font-family="Arial Black,Arial" font-size="14" font-weight="bold" fill="white" text-anchor="middle">C</text>
  <circle cx="1160" cy="122" r="16" fill="#1a2744"/>
  <text x="1160" y="127" font-family="Arial Black,Arial" font-size="14" font-weight="bold" fill="white" text-anchor="middle">D</text>

  <!-- Grid bubbles - rows -->
  <circle cx="72" cy="155" r="14" fill="white" stroke="#1a2744" stroke-width="2"/>
  <text x="72" y="160" font-family="Arial Black,Arial" font-size="13" font-weight="bold" fill="#1a2744" text-anchor="middle">1</text>
  <circle cx="72" cy="540" r="14" fill="white" stroke="#1a2744" stroke-width="2"/>
  <text x="72" y="545" font-family="Arial Black,Arial" font-size="13" font-weight="bold" fill="#1a2744" text-anchor="middle">2</text>

  <!-- ══════════════════════════════════════════
       OUTER WALLS (thick filled rect = wall mass)
       ══════════════════════════════════════════ -->
  <!-- Outer boundary -->
  <rect x="100" y="160" width="1400" height="725" fill="none" stroke="#1a2744" stroke-width="16"/>

  <!-- ══════════════════════════════════════════
       ROOMS
       ══════════════════════════════════════════ -->

  <!-- Living Room -->
  <rect x="108" y="168" width="520" height="350" fill="#e8f4e8" stroke="#1a2744" stroke-width="2"/>
  <text x="368" y="310" font-family="Arial" font-size="17" font-weight="bold" fill="#1a5c1a" text-anchor="middle">LIVING ROOM</text>
  <text x="368" y="332" font-family="Arial" font-size="12" fill="#2a7a2a" text-anchor="middle">5200 × 3500</text>
  <text x="368" y="350" font-family="Arial" font-size="11" fill="#2a7a2a" text-anchor="middle">18.2 m²</text>

  <!-- Dining -->
  <rect x="628" y="168" width="360" height="350" fill="#e8eef8" stroke="#1a2744" stroke-width="2"/>
  <text x="808" y="310" font-family="Arial" font-size="16" font-weight="bold" fill="#1a2c6a" text-anchor="middle">DINING</text>
  <text x="808" y="330" font-family="Arial" font-size="12" fill="#1a2c6a" text-anchor="middle">3600 × 3500</text>
  <text x="808" y="348" font-family="Arial" font-size="11" fill="#1a2c6a" text-anchor="middle">12.6 m²</text>

  <!-- Master Bedroom -->
  <rect x="988" y="168" width="504" height="350" fill="#f0e8f5" stroke="#1a2744" stroke-width="2"/>
  <text x="1240" y="305" font-family="Arial" font-size="16" font-weight="bold" fill="#5a1a7a" text-anchor="middle">MASTER</text>
  <text x="1240" y="325" font-family="Arial" font-size="16" font-weight="bold" fill="#5a1a7a" text-anchor="middle">BEDROOM</text>
  <text x="1240" y="348" font-family="Arial" font-size="12" fill="#5a1a7a" text-anchor="middle">5040 × 3500</text>
  <text x="1240" y="366" font-family="Arial" font-size="11" fill="#5a1a7a" text-anchor="middle">17.6 m²</text>

  <!-- Kitchen -->
  <rect x="108" y="518" width="340" height="359" fill="#fef5e0" stroke="#1a2744" stroke-width="2"/>
  <text x="278" y="660" font-family="Arial" font-size="16" font-weight="bold" fill="#7a4a00" text-anchor="middle">KITCHEN</text>
  <text x="278" y="680" font-family="Arial" font-size="12" fill="#7a4a00" text-anchor="middle">3400 × 3590</text>
  <text x="278" y="698" font-family="Arial" font-size="11" fill="#7a4a00" text-anchor="middle">12.2 m²</text>

  <!-- Toilet 1 -->
  <rect x="448" y="518" width="200" height="180" fill="#e0f5f5" stroke="#1a2744" stroke-width="2"/>
  <text x="548" y="600" font-family="Arial" font-size="13" font-weight="bold" fill="#006060" text-anchor="middle">TOILET</text>
  <text x="548" y="618" font-family="Arial" font-size="11" fill="#006060" text-anchor="middle">2000×1800</text>
  <text x="548" y="635" font-family="Arial" font-size="10" fill="#006060" text-anchor="middle">3.6 m²</text>
  <!-- WC symbol in Toilet -->
  <ellipse cx="548" cy="665" rx="22" ry="28" fill="white" stroke="#006060" stroke-width="1.5"/>
  <ellipse cx="548" cy="652" rx="10" ry="8" fill="none" stroke="#006060" stroke-width="1.5"/>

  <!-- Bathroom -->
  <rect x="448" y="698" width="200" height="179" fill="#d8eeff" stroke="#1a2744" stroke-width="2"/>
  <text x="548" y="775" font-family="Arial" font-size="13" font-weight="bold" fill="#00408a" text-anchor="middle">BATH</text>
  <text x="548" y="793" font-family="Arial" font-size="11" fill="#00408a" text-anchor="middle">2000×1790</text>
  <text x="548" y="810" font-family="Arial" font-size="10" fill="#00408a" text-anchor="middle">3.6 m²</text>
  <!-- Bath tub symbol -->
  <rect x="460" y="830" width="130" height="40" rx="8" fill="white" stroke="#00408a" stroke-width="1.5"/>

  <!-- Bedroom 2 -->
  <rect x="648" y="518" width="380" height="359" fill="#fff0e8" stroke="#1a2744" stroke-width="2"/>
  <text x="838" y="660" font-family="Arial" font-size="16" font-weight="bold" fill="#7a2000" text-anchor="middle">BEDROOM 2</text>
  <text x="838" y="680" font-family="Arial" font-size="12" fill="#7a2000" text-anchor="middle">3800 × 3590</text>
  <text x="838" y="698" font-family="Arial" font-size="11" fill="#7a2000" text-anchor="middle">13.6 m²</text>

  <!-- Bedroom 3 -->
  <rect x="1028" y="518" width="320" height="359" fill="#fff0e8" stroke="#1a2744" stroke-width="2"/>
  <text x="1188" y="660" font-family="Arial" font-size="16" font-weight="bold" fill="#7a2000" text-anchor="middle">BEDROOM 3</text>
  <text x="1188" y="680" font-family="Arial" font-size="12" fill="#7a2000" text-anchor="middle">3200 × 3590</text>
  <text x="1188" y="698" font-family="Arial" font-size="11" fill="#7a2000" text-anchor="middle">11.5 m²</text>

  <!-- Garage / Utility -->
  <rect x="1348" y="518" width="144" height="359" fill="#e8e8e8" stroke="#1a2744" stroke-width="2"/>
  <text x="1420" y="680" font-family="Arial" font-size="13" font-weight="bold" fill="#444" text-anchor="middle" writing-mode="vertical-rl" transform="rotate(-90,1420,680)">GARAGE / UTILITY</text>

  <!-- Internal walls -->
  <!-- Vertical wall between Living and Dining -->
  <line x1="628" y1="160" x2="628" y2="518" stroke="#1a2744" stroke-width="8"/>
  <!-- Vertical wall between Dining and Master Bed -->
  <line x1="988" y1="160" x2="988" y2="518" stroke="#1a2744" stroke-width="8"/>
  <!-- Horizontal wall between upper and lower zones -->
  <line x1="100" y1="518" x2="1500" y2="518" stroke="#1a2744" stroke-width="8"/>
  <!-- Vertical wall between Kitchen and Toilet/Bath stack -->
  <line x1="448" y1="518" x2="448" y2="877" stroke="#1a2744" stroke-width="8"/>
  <!-- Horizontal wall between Toilet and Bath -->
  <line x1="448" y1="698" x2="648" y2="698" stroke="#1a2744" stroke-width="8"/>
  <!-- Vertical wall between Bath/Toilet and Bedroom 2 -->
  <line x1="648" y1="518" x2="648" y2="877" stroke="#1a2744" stroke-width="8"/>
  <!-- Vertical wall between Bedroom 2 and 3 -->
  <line x1="1028" y1="518" x2="1028" y2="877" stroke="#1a2744" stroke-width="8"/>
  <!-- Vertical wall between Bedroom 3 and Garage -->
  <line x1="1348" y1="518" x2="1348" y2="877" stroke="#1a2744" stroke-width="8"/>

  <!-- ══════════════════════════════════════════
       DOORS (arc notation)
       ══════════════════════════════════════════ -->
  <!-- Main entrance door (south wall, Living Room) -->
  <line x1="240" y1="877" x2="240" y2="877" stroke="none"/>
  <path d="M 300,877 L 380,877" stroke="#1a2744" stroke-width="8" fill="none"/>
  <rect x="300" y="870" width="80" height="7" fill="#f7f5f0"/>
  <path d="M 300,877 A 80,80 0 0,1 380,797" fill="none" stroke="#1a2744" stroke-width="1.5" stroke-dasharray="5,3"/>
  <line x1="300" y1="877" x2="300" y2="797" stroke="#1a2744" stroke-width="2"/>

  <!-- Bedroom 2 door -->
  <rect x="700" y="512" width="60" height="6" fill="#f7f5f0"/>
  <path d="M 700,518 A 60,60 0 0,0 760,578" fill="none" stroke="#1a2744" stroke-width="1.5" stroke-dasharray="4,3"/>
  <line x1="700" y1="518" x2="760" y2="518" stroke="#1a2744" stroke-width="2"/>

  <!-- Bedroom 3 door -->
  <rect x="1080" y="512" width="60" height="6" fill="#f7f5f0"/>
  <path d="M 1080,518 A 60,60 0 0,0 1140,578" fill="none" stroke="#1a2744" stroke-width="1.5" stroke-dasharray="4,3"/>
  <line x1="1080" y1="518" x2="1140" y2="518" stroke="#1a2744" stroke-width="2"/>

  <!-- Kitchen door (from dining/living passage) -->
  <rect x="108" y="470" width="6" height="55" fill="#f7f5f0"/>
  <path d="M 108,470 A 55,55 0 0,1 163,470" fill="none" stroke="#1a2744" stroke-width="1.5" stroke-dasharray="4,3"/>
  <line x1="108" y1="470" x2="108" y2="518" stroke="#1a2744" stroke-width="2"/>

  <!-- Toilet door -->
  <rect x="448" y="570" width="6" height="50" fill="#f7f5f0"/>
  <path d="M 448,570 A 50,50 0 0,0 498,570" fill="none" stroke="#1a2744" stroke-width="1.5" stroke-dasharray="4,3"/>

  <!-- Bath door -->
  <rect x="448" y="750" width="6" height="50" fill="#f7f5f0"/>
  <path d="M 448,750 A 50,50 0 0,0 498,750" fill="none" stroke="#1a2744" stroke-width="1.5" stroke-dasharray="4,3"/>

  <!-- ══════════════════════════════════════════
       WINDOWS (thick lines on outer walls)
       ══════════════════════════════════════════ -->
  <!-- Living room windows (west wall) -->
  <line x1="100" y1="220" x2="100" y2="310" stroke="#5b8dd9" stroke-width="10"/>
  <line x1="100" y1="380" x2="100" y2="460" stroke="#5b8dd9" stroke-width="10"/>
  <!-- Dining window (north wall) -->
  <line x1="660" y1="160" x2="780" y2="160" stroke="#5b8dd9" stroke-width="10"/>
  <!-- Master Bed windows -->
  <line x1="1050" y1="160" x2="1180" y2="160" stroke="#5b8dd9" stroke-width="10"/>
  <line x1="1492" y1="250" x2="1492" y2="380" stroke="#5b8dd9" stroke-width="10"/>
  <!-- Bedroom 2 window (south) -->
  <line x1="720" y1="877" x2="850" y2="877" stroke="#5b8dd9" stroke-width="10"/>
  <!-- Bedroom 3 window (south) -->
  <line x1="1080" y1="877" x2="1200" y2="877" stroke="#5b8dd9" stroke-width="10"/>
  <!-- Kitchen window (north) -->
  <line x1="140" y1="160" x2="270" y2="160" stroke="#5b8dd9" stroke-width="10"/>

  <!-- ══════════════════════════════════════════
       FURNITURE (schematic)
       ══════════════════════════════════════════ -->
  <!-- Sofa in Living Room -->
  <rect x="130" y="400" width="280" height="60" rx="8" fill="#b8d4b8" stroke="#1a2744" stroke-width="1.5"/>
  <rect x="130" y="420" width="90" height="40" rx="6" fill="#a0c4a0" stroke="#1a2744" stroke-width="1"/>
  <rect x="222" y="420" width="90" height="40" rx="6" fill="#a0c4a0" stroke="#1a2744" stroke-width="1"/>
  <rect x="314" y="420" width="90" height="40" rx="6" fill="#a0c4a0" stroke="#1a2744" stroke-width="1"/>
  <!-- Coffee table -->
  <rect x="180" y="470" width="180" height="80" rx="4" fill="#d0e8d0" stroke="#1a2744" stroke-width="1.5"/>

  <!-- Dining Table -->
  <rect x="660" y="210" width="280" height="160" rx="6" fill="#c8d8f0" stroke="#1a2744" stroke-width="1.5"/>
  <!-- Dining chairs -->
  <rect x="660" y="200" width="40" height="30" rx="4" fill="#b0c8e0" stroke="#1a2744" stroke-width="1"/>
  <rect x="720" y="200" width="40" height="30" rx="4" fill="#b0c8e0" stroke="#1a2744" stroke-width="1"/>
  <rect x="780" y="200" width="40" height="30" rx="4" fill="#b0c8e0" stroke="#1a2744" stroke-width="1"/>
  <rect x="840" y="200" width="40" height="30" rx="4" fill="#b0c8e0" stroke="#1a2744" stroke-width="1"/>
  <rect x="660" y="352" width="40" height="30" rx="4" fill="#b0c8e0" stroke="#1a2744" stroke-width="1"/>
  <rect x="720" y="352" width="40" height="30" rx="4" fill="#b0c8e0" stroke="#1a2744" stroke-width="1"/>
  <rect x="780" y="352" width="40" height="30" rx="4" fill="#b0c8e0" stroke="#1a2744" stroke-width="1"/>
  <rect x="840" y="352" width="40" height="30" rx="4" fill="#b0c8e0" stroke="#1a2744" stroke-width="1"/>

  <!-- Bed in Master Bedroom -->
  <rect x="1050" y="190" width="280" height="250" rx="6" fill="#ddd0f0" stroke="#1a2744" stroke-width="1.5"/>
  <rect x="1050" y="190" width="280" height="60" rx="6" fill="#ccc0e0" stroke="#1a2744" stroke-width="1"/>
  <!-- Pillows -->
  <rect x="1065" y="200" width="70" height="40" rx="8" fill="white" stroke="#8060a0" stroke-width="1"/>
  <rect x="1245" y="200" width="70" height="40" rx="8" fill="white" stroke="#8060a0" stroke-width="1"/>
  <!-- Bedside tables -->
  <rect x="1010" y="200" width="40" height="40" rx="4" fill="#e8e0f5" stroke="#1a2744" stroke-width="1"/>
  <rect x="1330" y="200" width="40" height="40" rx="4" fill="#e8e0f5" stroke="#1a2744" stroke-width="1"/>

  <!-- Bed in Bedroom 2 -->
  <rect x="700" y="570" width="240" height="200" rx="6" fill="#ffe8d8" stroke="#1a2744" stroke-width="1.5"/>
  <rect x="700" y="570" width="240" height="50" rx="6" fill="#ffd8c8" stroke="#1a2744" stroke-width="1"/>
  <rect x="715" y="578" width="60" height="35" rx="6" fill="white" stroke="#c04020" stroke-width="1"/>
  <rect x="855" y="578" width="60" height="35" rx="6" fill="white" stroke="#c04020" stroke-width="1"/>

  <!-- Bed in Bedroom 3 -->
  <rect x="1055" y="570" width="220" height="190" rx="6" fill="#ffe8d8" stroke="#1a2744" stroke-width="1.5"/>
  <rect x="1055" y="570" width="220" height="50" rx="6" fill="#ffd8c8" stroke="#1a2744" stroke-width="1"/>
  <rect x="1065" y="578" width="55" height="35" rx="6" fill="white" stroke="#c04020" stroke-width="1"/>
  <rect x="1195" y="578" width="55" height="35" rx="6" fill="white" stroke="#c04020" stroke-width="1"/>

  <!-- Kitchen counter/cabinets -->
  <rect x="120" y="530" width="250" height="50" fill="#f0d890" stroke="#7a4a00" stroke-width="1.5"/>
  <text x="245" y="562" font-family="Arial" font-size="11" fill="#7a4a00" text-anchor="middle">COUNTER</text>
  <rect x="120" y="580" width="50" height="50" fill="#e8c870" stroke="#7a4a00" stroke-width="1.5"/>
  <text x="145" y="612" font-family="Arial" font-size="10" fill="#7a4a00" text-anchor="middle">HOB</text>
  <!-- Sink -->
  <rect x="175" y="580" width="60" height="40" rx="4" fill="#c8e8f8" stroke="#7a4a00" stroke-width="1.5"/>
  <circle cx="205" cy="600" r="8" fill="none" stroke="#7a4a00" stroke-width="1.5"/>

  <!-- ══════════════════════════════════════════
       STAIRCASE
       ══════════════════════════════════════════ -->
  <rect x="628" y="450" width="360" height="68" fill="none" stroke="#1a2744" stroke-width="2"/>
  <text x="808" y="489" font-family="Arial" font-size="12" fill="#1a2744" text-anchor="middle">STAIRCASE ↑</text>
  <!-- Stair treads -->
  <line x1="628" y1="462" x2="988" y2="462" stroke="#1a2744" stroke-width="1"/>
  <line x1="628" y1="474" x2="988" y2="474" stroke="#1a2744" stroke-width="1"/>
  <line x1="628" y1="486" x2="988" y2="486" stroke="#1a2744" stroke-width="1"/>
  <line x1="628" y1="498" x2="988" y2="498" stroke="#1a2744" stroke-width="1"/>
  <line x1="628" y1="510" x2="988" y2="510" stroke="#1a2744" stroke-width="1"/>

  <!-- ══════════════════════════════════════════
       DIMENSION LINES (simplified key dims)
       ══════════════════════════════════════════ -->
  <!-- Overall width -->
  <line x1="100" y1="930" x2="1500" y2="930" stroke="#1a2744" stroke-width="1.2" marker-start="url(#dim-arrow-r)" marker-end="url(#dim-arrow)"/>
  <text x="800" y="947" font-family="Arial" font-size="12" fill="#1a2744" text-anchor="middle">14 000</text>

  <!-- Overall height -->
  <line x1="1520" y1="160" x2="1520" y2="877" stroke="#1a2744" stroke-width="1.2" marker-start="url(#dim-arrow-r)" marker-end="url(#dim-arrow)"/>
  <text x="1545" y="520" font-family="Arial" font-size="12" fill="#1a2744" text-anchor="middle" transform="rotate(90,1545,520)">7 170</text>

  <!-- Bay widths (top) -->
  <line x1="100" y1="146" x2="480" y2="146" stroke="#1a2744" stroke-width="1" marker-start="url(#dim-arrow-r)" marker-end="url(#dim-arrow)"/>
  <text x="290" y="142" font-family="Arial" font-size="11" fill="#1a2744" text-anchor="middle">3 800</text>

  <line x1="480" y1="146" x2="820" y2="146" stroke="#1a2744" stroke-width="1" marker-start="url(#dim-arrow-r)" marker-end="url(#dim-arrow)"/>
  <text x="650" y="142" font-family="Arial" font-size="11" fill="#1a2744" text-anchor="middle">3 400</text>

  <line x1="820" y1="146" x2="1160" y2="146" stroke="#1a2744" stroke-width="1" marker-start="url(#dim-arrow-r)" marker-end="url(#dim-arrow)"/>
  <text x="990" y="142" font-family="Arial" font-size="11" fill="#1a2744" text-anchor="middle">3 400</text>

  <line x1="1160" y1="146" x2="1500" y2="146" stroke="#1a2744" stroke-width="1" marker-start="url(#dim-arrow-r)" marker-end="url(#dim-arrow)"/>
  <text x="1330" y="142" font-family="Arial" font-size="11" fill="#1a2744" text-anchor="middle">3 400</text>

  <!-- ══════════════════════════════════════════
       LEGEND BOX
       ══════════════════════════════════════════ -->
  <rect x="100" y="910" width="550" height="48" rx="4" fill="white" stroke="#1a2744" stroke-width="1.5" filter="url(#dropshadow)"/>
  <text x="112" y="928" font-family="Arial Black,Arial" font-size="12" font-weight="bold" fill="#1a2744">LEGEND:</text>
  <rect x="175" y="917" width="16" height="12" fill="#e8f4e8" stroke="#1a2744" stroke-width="1"/>
  <text x="196" y="928" font-family="Arial" font-size="11" fill="#333">Living/Dining</text>
  <rect x="275" y="917" width="16" height="12" fill="#f0e8f5" stroke="#1a2744" stroke-width="1"/>
  <text x="296" y="928" font-family="Arial" font-size="11" fill="#333">Bedroom</text>
  <rect x="370" y="917" width="16" height="12" fill="#fef5e0" stroke="#1a2744" stroke-width="1"/>
  <text x="391" y="928" font-family="Arial" font-size="11" fill="#333">Kitchen</text>
  <rect x="450" y="917" width="16" height="12" fill="#e0f5f5" stroke="#1a2744" stroke-width="1"/>
  <text x="471" y="928" font-family="Arial" font-size="11" fill="#333">Wet Areas</text>
  <!-- Window/Door symbols -->
  <line x1="112" y1="946" x2="140" y2="946" stroke="#5b8dd9" stroke-width="4"/>
  <text x="146" y="950" font-family="Arial" font-size="11" fill="#333">Window</text>
  <path d="M 210,940 A 20,20 0 0,1 230,960" fill="none" stroke="#1a2744" stroke-width="1.5" stroke-dasharray="3,2"/>
  <text x="238" y="950" font-family="Arial" font-size="11" fill="#333">Door swing</text>

  <!-- North Arrow -->
  <g transform="translate(1380,920)">
    <circle cx="0" cy="0" r="24" fill="white" stroke="#1a2744" stroke-width="2"/>
    <polygon points="0,-20 7,10 0,5 -7,10" fill="#1a2744"/>
    <polygon points="0,-20 -7,10 0,5 7,10" fill="#8a9ab0"/>
    <text x="0" y="-25" font-family="Arial Black" font-size="13" fill="#1a2744" text-anchor="middle" font-weight="bold">N</text>
  </g>

  <!-- Scale bar -->
  <g transform="translate(1440,910)">
    <rect x="0" y="0" width="40" height="10" fill="#1a2744"/>
    <rect x="40" y="0" width="40" height="10" fill="white" stroke="#1a2744" stroke-width="1"/>
    <rect x="80" y="0" width="40" height="10" fill="#1a2744"/>
    <text x="0" y="26" font-family="Arial" font-size="10" fill="#1a2744">0</text>
    <text x="38" y="26" font-family="Arial" font-size="10" fill="#1a2744">2m</text>
    <text x="78" y="26" font-family="Arial" font-size="10" fill="#1a2744">4m</text>
    <text x="60" y="-4" font-family="Arial" font-size="10" fill="#444" text-anchor="middle">Scale 1:50</text>
  </g>

  <!-- Title Block text -->
  <text x="24" y="995" font-family="Arial Black,Arial" font-size="20" font-weight="bold" fill="white">GROUND FLOOR PLAN</text>
  <text x="24" y="1020" font-family="Arial" font-size="12" fill="#a0c0e0">Project: House Building Project  |  Drawing: HBP-GF-002  |  Scale: 1:50  |  Date: August 2026  |  Rev: A</text>
  <text x="1580" y="1020" font-family="Arial" font-size="11" fill="#a0c0e0" text-anchor="end">© BuildTrack Construction Management</text>
  <line x1="800" y1="970" x2="800" y2="1050" stroke="#c8a400" stroke-width="1" opacity="0.4"/>
  <text x="900" y="995" font-family="Arial" font-size="13" fill="#c8e4ff">Approved By: Er. Rajesh Sharma</text>
  <text x="900" y="1015" font-family="Arial" font-size="12" fill="#88a8cc">Checked: Priya Nair  |  Drawn: K. Mohan</text>
</svg>
