<svg xmlns="http://www.w3.org/2000/svg" width="1800" height="1100" viewBox="0 0 1800 1100" font-family="Arial,Helvetica,sans-serif">
<defs>
  <filter id="sd"><feDropShadow dx="1.5" dy="1.5" stdDeviation="2.5" flood-opacity="0.20"/></filter>
  <marker id="arro" markerWidth="7" markerHeight="7" refX="6" refY="3" orient="auto"><path d="M0,0 L0,6 L7,3 z" fill="#2c3e50"/></marker>
  <marker id="arrl" markerWidth="7" markerHeight="7" refX="1" refY="3" orient="auto"><path d="M7,0 L7,6 L0,3 z" fill="#2c3e50"/></marker>
</defs>
<rect width="1800" height="1100" fill="#f5f5f0"/>
<rect x="10" y="10" width="1780" height="1080" fill="none" stroke="#1a1a2e" stroke-width="2"/>
<rect x="15" y="15" width="1770" height="1070" fill="none" stroke="#1a1a2e" stroke-width="0.8"/>

<!-- Sheet heading -->
<text x="900" y="52" font-size="26" fill="#1a1a2e" text-anchor="middle" font-weight="900" letter-spacing="2">ROOF PLAN</text>
<text x="900" y="74" font-size="13" fill="#5a6a80" text-anchor="middle" letter-spacing="1">HOUSE BUILDING PROJECT   |   Drawing No: HBP-RF-003   |   Scale 1:100   |   Sheet 1 of 1</text>

<!-- ── Roof surface (tile fill) ── -->
<defs>
  <pattern id="rooftile" x="0" y="0" width="36" height="20" patternUnits="userSpaceOnUse">
    <rect width="36" height="20" fill="#d4c8b8"/>
    <rect x="0" y="0" width="18" height="10" fill="#c8bba8" stroke="#b0a08a" stroke-width="0.5"/>
    <rect x="18" y="0" width="18" height="10" fill="#d4c8b8" stroke="#b0a08a" stroke-width="0.5"/>
    <rect x="9" y="10" width="18" height="10" fill="#c8bba8" stroke="#b0a08a" stroke-width="0.5"/>
    <rect x="-9" y="10" width="18" height="10" fill="#d4c8b8" stroke="#b0a08a" stroke-width="0.5"/>
    <rect x="27" y="10" width="9" height="10" fill="#d4c8b8" stroke="#b0a08a" stroke-width="0.5"/>
  </pattern>
  <pattern id="metalsheet" x="0" y="0" width="20" height="60" patternUnits="userSpaceOnUse">
    <rect width="20" height="60" fill="#a8b8c0"/>
    <line x1="0" y1="0" x2="0" y2="60" stroke="#90a0a8" stroke-width="1.5"/>
    <line x1="20" y1="0" x2="20" y2="60" stroke="#90a0a8" stroke-width="1.5"/>
    <line x1="10" y1="0" x2="10" y2="60" stroke="#8898a0" stroke-width="0.5"/>
  </pattern>
</defs>

<!-- West slope fill (clay tile) -->
<polygon points="140,90 665,90 665,840 140,840" fill="url(#rooftile)" opacity="0.85"/>

<!-- East slope fill (metal sheet — different material) -->
<polygon points="665,90 1190,90 1190,840 665,840" fill="url(#metalsheet)" opacity="0.7"/>

<!-- Contour / slope indicator lines -->
<rect x="168" y="118" width="994" height="694" fill="none" stroke="#c8b89a" stroke-width="0.7" stroke-dasharray="6,5" opacity="0.5"/>
<rect x="196" y="146" width="938" height="638" fill="none" stroke="#c8b89a" stroke-width="0.7" stroke-dasharray="6,5" opacity="0.5"/>
<rect x="224" y="174" width="882" height="582" fill="none" stroke="#c8b89a" stroke-width="0.7" stroke-dasharray="6,5" opacity="0.5"/>
<rect x="252" y="202" width="826" height="526" fill="none" stroke="#c8b89a" stroke-width="0.7" stroke-dasharray="6,5" opacity="0.5"/>
<rect x="280" y="230" width="770" height="470" fill="none" stroke="#c8b89a" stroke-width="0.7" stroke-dasharray="6,5" opacity="0.5"/>

<!-- Hatch lines (direction of slope) -->
<line x1="144" y1="118" x2="661" y2="178" stroke="#b0a898" stroke-width="0.8" opacity="0.55"/>
<line x1="144" y1="146" x2="661" y2="206" stroke="#b0a898" stroke-width="0.8" opacity="0.55"/>
<line x1="144" y1="174" x2="661" y2="234" stroke="#b0a898" stroke-width="0.8" opacity="0.55"/>
<line x1="144" y1="202" x2="661" y2="262" stroke="#b0a898" stroke-width="0.8" opacity="0.55"/>
<line x1="144" y1="230" x2="661" y2="290" stroke="#b0a898" stroke-width="0.8" opacity="0.55"/>
<line x1="144" y1="258" x2="661" y2="318" stroke="#b0a898" stroke-width="0.8" opacity="0.55"/>
<line x1="144" y1="286" x2="661" y2="346" stroke="#b0a898" stroke-width="0.8" opacity="0.55"/>
<line x1="144" y1="314" x2="661" y2="374" stroke="#b0a898" stroke-width="0.8" opacity="0.55"/>
<line x1="144" y1="342" x2="661" y2="402" stroke="#b0a898" stroke-width="0.8" opacity="0.55"/>
<line x1="144" y1="370" x2="661" y2="430" stroke="#b0a898" stroke-width="0.8" opacity="0.55"/>
<line x1="144" y1="398" x2="661" y2="458" stroke="#b0a898" stroke-width="0.8" opacity="0.55"/>
<line x1="144" y1="426" x2="661" y2="486" stroke="#b0a898" stroke-width="0.8" opacity="0.55"/>
<line x1="144" y1="454" x2="661" y2="514" stroke="#b0a898" stroke-width="0.8" opacity="0.55"/>
<line x1="144" y1="482" x2="661" y2="542" stroke="#b0a898" stroke-width="0.8" opacity="0.55"/>
<line x1="144" y1="510" x2="661" y2="570" stroke="#b0a898" stroke-width="0.8" opacity="0.55"/>
<line x1="144" y1="538" x2="661" y2="598" stroke="#b0a898" stroke-width="0.8" opacity="0.55"/>
<line x1="144" y1="566" x2="661" y2="626" stroke="#b0a898" stroke-width="0.8" opacity="0.55"/>
<line x1="144" y1="594" x2="661" y2="654" stroke="#b0a898" stroke-width="0.8" opacity="0.55"/>
<line x1="144" y1="622" x2="661" y2="682" stroke="#b0a898" stroke-width="0.8" opacity="0.55"/>
<line x1="144" y1="650" x2="661" y2="710" stroke="#b0a898" stroke-width="0.8" opacity="0.55"/>
<line x1="144" y1="678" x2="661" y2="738" stroke="#b0a898" stroke-width="0.8" opacity="0.55"/>
<line x1="144" y1="706" x2="661" y2="766" stroke="#b0a898" stroke-width="0.8" opacity="0.55"/>
<line x1="144" y1="734" x2="661" y2="794" stroke="#b0a898" stroke-width="0.8" opacity="0.55"/>
<line x1="144" y1="762" x2="661" y2="822" stroke="#b0a898" stroke-width="0.8" opacity="0.55"/>
<line x1="144" y1="790" x2="661" y2="836" stroke="#b0a898" stroke-width="0.8" opacity="0.55"/>
<line x1="144" y1="818" x2="661" y2="836" stroke="#b0a898" stroke-width="0.8" opacity="0.55"/>
<line x1="669" y1="118" x2="1186" y2="178" stroke="#b0a898" stroke-width="0.8" opacity="0.55"/>
<line x1="669" y1="146" x2="1186" y2="206" stroke="#b0a898" stroke-width="0.8" opacity="0.55"/>
<line x1="669" y1="174" x2="1186" y2="234" stroke="#b0a898" stroke-width="0.8" opacity="0.55"/>
<line x1="669" y1="202" x2="1186" y2="262" stroke="#b0a898" stroke-width="0.8" opacity="0.55"/>
<line x1="669" y1="230" x2="1186" y2="290" stroke="#b0a898" stroke-width="0.8" opacity="0.55"/>
<line x1="669" y1="258" x2="1186" y2="318" stroke="#b0a898" stroke-width="0.8" opacity="0.55"/>
<line x1="669" y1="286" x2="1186" y2="346" stroke="#b0a898" stroke-width="0.8" opacity="0.55"/>
<line x1="669" y1="314" x2="1186" y2="374" stroke="#b0a898" stroke-width="0.8" opacity="0.55"/>
<line x1="669" y1="342" x2="1186" y2="402" stroke="#b0a898" stroke-width="0.8" opacity="0.55"/>
<line x1="669" y1="370" x2="1186" y2="430" stroke="#b0a898" stroke-width="0.8" opacity="0.55"/>
<line x1="669" y1="398" x2="1186" y2="458" stroke="#b0a898" stroke-width="0.8" opacity="0.55"/>
<line x1="669" y1="426" x2="1186" y2="486" stroke="#b0a898" stroke-width="0.8" opacity="0.55"/>
<line x1="669" y1="454" x2="1186" y2="514" stroke="#b0a898" stroke-width="0.8" opacity="0.55"/>
<line x1="669" y1="482" x2="1186" y2="542" stroke="#b0a898" stroke-width="0.8" opacity="0.55"/>
<line x1="669" y1="510" x2="1186" y2="570" stroke="#b0a898" stroke-width="0.8" opacity="0.55"/>
<line x1="669" y1="538" x2="1186" y2="598" stroke="#b0a898" stroke-width="0.8" opacity="0.55"/>
<line x1="669" y1="566" x2="1186" y2="626" stroke="#b0a898" stroke-width="0.8" opacity="0.55"/>
<line x1="669" y1="594" x2="1186" y2="654" stroke="#b0a898" stroke-width="0.8" opacity="0.55"/>
<line x1="669" y1="622" x2="1186" y2="682" stroke="#b0a898" stroke-width="0.8" opacity="0.55"/>
<line x1="669" y1="650" x2="1186" y2="710" stroke="#b0a898" stroke-width="0.8" opacity="0.55"/>
<line x1="669" y1="678" x2="1186" y2="738" stroke="#b0a898" stroke-width="0.8" opacity="0.55"/>
<line x1="669" y1="706" x2="1186" y2="766" stroke="#b0a898" stroke-width="0.8" opacity="0.55"/>
<line x1="669" y1="734" x2="1186" y2="794" stroke="#b0a898" stroke-width="0.8" opacity="0.55"/>
<line x1="669" y1="762" x2="1186" y2="822" stroke="#b0a898" stroke-width="0.8" opacity="0.55"/>
<line x1="669" y1="790" x2="1186" y2="836" stroke="#b0a898" stroke-width="0.8" opacity="0.55"/>
<line x1="669" y1="818" x2="1186" y2="836" stroke="#b0a898" stroke-width="0.8" opacity="0.55"/>

<!-- ── Outer building footprint (eave line bold) ── -->
<rect x="140" y="90" width="1050" height="750" fill="none" stroke="#1a1a2e" stroke-width="5" filter="url(#sd)"/>

<!-- ── Ridge line (bold centre line) ── -->
<line x1="665" y1="90" x2="665" y2="840" stroke="#1a1a2e" stroke-width="3.5"/>
<line x1="140" y1="465" x2="1190" y2="465" stroke="#1a1a2e" stroke-width="2" stroke-dasharray="14,7"/>

<!-- Ridge labels -->
<rect x="603" y="451" width="124" height="24" rx="4" fill="white" stroke="#1a1a2e" stroke-width="1.2"/>
<text x="665" y="469" font-size="12" fill="#1a1a2e" text-anchor="middle" font-weight="bold">RIDGE LINE</text>

<rect x="613" y="126" width="104" height="24" rx="4" fill="white" stroke="#1a1a2e" stroke-width="1.2"/>
<text x="665" y="144" font-size="11" fill="#1a1a2e" text-anchor="middle" font-weight="bold">APEX RIDGE</text>

<!-- ── Slope direction arrows ── -->
<!-- West slope arrow -->
<line x1="340" y1="405" x2="200" y2="405" stroke="#1a1a2e" stroke-width="2" marker-end="url(#arro)"/>
<text x="340" y="400" font-size="13" fill="#1a1a2e" text-anchor="middle" font-weight="bold">SLOPE →</text>
<text x="340" y="420" font-size="11" fill="#5a6a80" text-anchor="middle">18.4° (1:3) Pitch</text>

<!-- East slope arrow -->
<line x1="865" y1="405" x2="1130" y2="405" stroke="#1a1a2e" stroke-width="2" marker-end="url(#arro)"/>
<text x="865" y="400" font-size="13" fill="#1a1a2e" text-anchor="middle" font-weight="bold">← SLOPE</text>
<text x="865" y="420" font-size="11" fill="#5a6a80" text-anchor="middle">18.4° (1:3) Pitch</text>

<!-- ── Valley lines (hip / valley at corners) ── -->
<line x1="140" y1="90" x2="665" y2="465" stroke="#1a1a2e" stroke-width="2" stroke-dasharray="10,6" opacity="0.6"/>
<line x1="1190" y1="90" x2="665" y2="465" stroke="#1a1a2e" stroke-width="2" stroke-dasharray="10,6" opacity="0.6"/>
<line x1="140" y1="840" x2="665" y2="465" stroke="#1a1a2e" stroke-width="2" stroke-dasharray="10,6" opacity="0.6"/>
<line x1="1190" y1="840" x2="665" y2="465" stroke="#1a1a2e" stroke-width="2" stroke-dasharray="10,6" opacity="0.6"/>

<!-- ── Roof overhang (600mm dashed) ── -->
<rect x="110" y="60" width="1110" height="810" fill="none" stroke="#909090" stroke-width="1.5" stroke-dasharray="8,6"/>
<text x="110" y="55" font-size="11" fill="#707070">600 OVERHANG (TYP)</text>

<!-- ── Gutters (UPVC, bold blue) ── -->
<rect x="136" y="78" width="1058" height="10" rx="5" fill="#5080b0" stroke="#1a1a2e" stroke-width="1.2"/>
<rect x="136" y="842" width="1058" height="10" rx="5" fill="#5080b0" stroke="#1a1a2e" stroke-width="1.2"/>
<rect x="128" y="86" width="10" height="758" rx="5" fill="#5080b0" stroke="#1a1a2e" stroke-width="1.2"/>
<rect x="1192" y="86" width="10" height="758" rx="5" fill="#5080b0" stroke="#1a1a2e" stroke-width="1.2"/>
<text x="665" y="74" font-size="10" fill="#5080b0" text-anchor="middle">UPVC GUTTER 125mm (ALL EAVES)</text>

<!-- ── Downpipes at corners ── -->
<circle cx="140" cy="90" r="9" fill="#5080b0" stroke="#1a1a2e" stroke-width="1.5"/>
<text x="126" y="78" font-size="10" fill="#5080b0" font-weight="bold">DN</text>
<circle cx="1190" cy="90" r="9" fill="#5080b0" stroke="#1a1a2e" stroke-width="1.5"/>
<text x="1194" y="78" font-size="10" fill="#5080b0" font-weight="bold">DN</text>
<circle cx="140" cy="840" r="9" fill="#5080b0" stroke="#1a1a2e" stroke-width="1.5"/>
<text x="126" y="862" font-size="10" fill="#5080b0" font-weight="bold">DN</text>
<circle cx="1190" cy="840" r="9" fill="#5080b0" stroke="#1a1a2e" stroke-width="1.5"/>
<text x="1194" y="862" font-size="10" fill="#5080b0" font-weight="bold">DN</text>

<!-- ── Rooflight / Skylight ── -->
<rect x="220" y="415" width="120" height="100" rx="6" fill="#d0f4ff" stroke="#3090c0" stroke-width="2.5"/>
<line x1="220" y1="415" x2="340" y2="515" stroke="#3090c0" stroke-width="1.2"/>
<line x1="340" y1="415" x2="220" y2="515" stroke="#3090c0" stroke-width="1.2"/>
<text x="280" y="545" font-size="11" fill="#3090c0" text-anchor="middle" font-weight="bold">SKYLIGHT 1200×1000</text>

<!-- ── Solar panels ── -->
<rect x="725" y="210" width="200" height="120" rx="4" fill="#304060" stroke="#202840" stroke-width="2" opacity="0.75"/>
<line x1="725" y1="270" x2="925" y2="270" stroke="#406080" stroke-width="1"/>
<line x1="725" y1="240" x2="925" y2="240" stroke="#406080" stroke-width="1"/>
<line x1="725" y1="300" x2="925" y2="300" stroke="#406080" stroke-width="1"/>
<line x1="785" y1="210" x2="785" y2="330" stroke="#406080" stroke-width="1"/>
<line x1="845" y1="210" x2="845" y2="330" stroke="#406080" stroke-width="1"/>
<line x1="905" y1="210" x2="905" y2="330" stroke="#406080" stroke-width="1"/>
<text x="825" y="370" font-size="11" fill="#304060" text-anchor="middle" font-weight="bold">SOLAR PANELS (6 No.) 2kW</text>

<!-- ── Dimension lines ── -->
<!-- Overall width -->
<line x1="140" y1="40" x2="1190" y2="40" stroke="#2c3e50" stroke-width="1.5" marker-start="url(#arrl)" marker-end="url(#arro)"/>
<line x1="140" y1="48" x2="140" y2="30" stroke="#2c3e50" stroke-width="1.2"/>
<line x1="1190" y1="48" x2="1190" y2="30" stroke="#2c3e50" stroke-width="1.2"/>
<text x="665" y="30" font-size="13" fill="#2c3e50" text-anchor="middle" font-weight="bold">10 500 mm</text>

<!-- Overall height right -->
<line x1="1235" y1="90" x2="1235" y2="840" stroke="#2c3e50" stroke-width="1.5" marker-start="url(#arrl)" marker-end="url(#arro)"/>
<line x1="1228" y1="90" x2="1244" y2="90" stroke="#2c3e50" stroke-width="1.2"/>
<line x1="1228" y1="840" x2="1244" y2="840" stroke="#2c3e50" stroke-width="1.2"/>
<text x="1260" y="465" font-size="13" fill="#2c3e50" text-anchor="middle" font-weight="bold" transform="rotate(-90,1260,465)">7 500 mm</text>

<!-- Half span (ridge) -->
<line x1="140" y1="880" x2="665" y2="880" stroke="#2c3e50" stroke-width="1.2" marker-start="url(#arrl)" marker-end="url(#arro)"/>
<text x="402.5" y="896" font-size="11" fill="#2c3e50" text-anchor="middle">5 250 mm (half span)</text>

<!-- ── Grid bubbles ── -->
<circle cx="140" cy="62" r="16" fill="#3a3aaa" stroke="white" stroke-width="2"/>
<text x="140" y="67" font-size="14" fill="white" text-anchor="middle" font-weight="bold">A</text>
<line x1="140" y1="78" x2="140" y2="860" stroke="#3a3aaa" stroke-width="1.2" stroke-dasharray="5,6" opacity="0.3"/><circle cx="490" cy="62" r="16" fill="#3a3aaa" stroke="white" stroke-width="2"/>
<text x="490" y="67" font-size="14" fill="white" text-anchor="middle" font-weight="bold">B</text>
<line x1="490" y1="78" x2="490" y2="860" stroke="#3a3aaa" stroke-width="1.2" stroke-dasharray="5,6" opacity="0.3"/><circle cx="840" cy="62" r="16" fill="#3a3aaa" stroke="white" stroke-width="2"/>
<text x="840" y="67" font-size="14" fill="white" text-anchor="middle" font-weight="bold">C</text>
<line x1="840" y1="78" x2="840" y2="860" stroke="#3a3aaa" stroke-width="1.2" stroke-dasharray="5,6" opacity="0.3"/><circle cx="1190" cy="62" r="16" fill="#3a3aaa" stroke="white" stroke-width="2"/>
<text x="1190" y="67" font-size="14" fill="white" text-anchor="middle" font-weight="bold">D</text>
<line x1="1190" y1="78" x2="1190" y2="860" stroke="#3a3aaa" stroke-width="1.2" stroke-dasharray="5,6" opacity="0.3"/><circle cx="88" cy="90" r="16" fill="#3a3aaa" stroke="white" stroke-width="2"/>
<text x="88" y="95" font-size="14" fill="white" text-anchor="middle" font-weight="bold">1</text>
<line x1="104" y1="90" x2="1680" y2="90" stroke="#3a3aaa" stroke-width="1.2" stroke-dasharray="5,6" opacity="0.3"/><circle cx="88" cy="340" r="16" fill="#3a3aaa" stroke="white" stroke-width="2"/>
<text x="88" y="345" font-size="14" fill="white" text-anchor="middle" font-weight="bold">2</text>
<line x1="104" y1="340" x2="1680" y2="340" stroke="#3a3aaa" stroke-width="1.2" stroke-dasharray="5,6" opacity="0.3"/><circle cx="88" cy="590" r="16" fill="#3a3aaa" stroke="white" stroke-width="2"/>
<text x="88" y="595" font-size="14" fill="white" text-anchor="middle" font-weight="bold">3</text>
<line x1="104" y1="590" x2="1680" y2="590" stroke="#3a3aaa" stroke-width="1.2" stroke-dasharray="5,6" opacity="0.3"/><circle cx="88" cy="840" r="16" fill="#3a3aaa" stroke="white" stroke-width="2"/>
<text x="88" y="845" font-size="14" fill="white" text-anchor="middle" font-weight="bold">4</text>
<line x1="104" y1="840" x2="1680" y2="840" stroke="#3a3aaa" stroke-width="1.2" stroke-dasharray="5,6" opacity="0.3"/>

<!-- ── Rafter annotation ── -->
<line x1="180" y1="240" x2="180" y2="440" stroke="#1a1a2e" stroke-width="1.5" stroke-dasharray="4,3" opacity="0.5"/>
<line x1="208" y1="240" x2="208" y2="440" stroke="#1a1a2e" stroke-width="1.5" stroke-dasharray="4,3" opacity="0.5"/>
<text x="160" y="350" font-size="10" fill="#1a1a2e" text-anchor="middle" transform="rotate(-90,160,350)">RAFTER 100×50mm TEAK @ 600 c/c</text>

<!-- ── Legend panel ── -->
<rect x="1300" y="90" width="310" height="500" rx="10" fill="white" stroke="#d0d8e0" stroke-width="1.8" filter="url(#sd)"/>
<rect x="1300" y="90" width="310" height="40" rx="10" fill="#1a1a2e"/>
<text x="1455" y="116" font-size="14" fill="white" text-anchor="middle" font-weight="bold">ROOF SCHEDULE</text>

<rect x="1315" y="140" width="22" height="16" fill="#c8bba8"/>
<text x="1348" y="153" font-size="12" fill="#1a1a2e" font-weight="bold">West Slope</text>
<text x="1348" y="168" font-size="11" fill="#5a6a80">Mangalore Clay Tiles</text>

<rect x="1315" y="185" width="22" height="16" fill="#a8b8c0"/>
<text x="1348" y="198" font-size="12" fill="#1a1a2e" font-weight="bold">East Slope</text>
<text x="1348" y="213" font-size="11" fill="#5a6a80">Galv. Metal Sheet</text>

<rect x="1315" y="230" width="22" height="8" rx="4" fill="#5080b0"/>
<text x="1348" y="242" font-size="12" fill="#1a1a2e" font-weight="bold">UPVC Gutters</text>
<text x="1348" y="256" font-size="11" fill="#5a6a80">125mm half-round</text>

<circle cx="1326" cy="272" r="9" fill="#5080b0"/>
<text x="1348" y="276" font-size="12" fill="#1a1a2e" font-weight="bold">Downpipes 90mm</text>

<rect x="1315" y="290" width="22" height="16" fill="#d0f4ff" stroke="#3090c0" stroke-width="1.5"/>
<text x="1348" y="303" font-size="12" fill="#1a1a2e" font-weight="bold">Skylight</text>
<text x="1348" y="318" font-size="11" fill="#5a6a80">1200×1000 Double Glaze</text>

<rect x="1315" y="335" width="22" height="16" fill="#304060" opacity="0.8"/>
<text x="1348" y="348" font-size="12" fill="#1a1a2e" font-weight="bold">Solar Panels</text>
<text x="1348" y="363" font-size="11" fill="#5a6a80">6 No. × 330W = 2kW</text>

<line x1="1315" y1="385" x2="1595" y2="385" stroke="#e0e0e0" stroke-width="1"/>
<text x="1315" y="405" font-size="12" fill="#1a1a2e" font-weight="bold">SPECIFICATIONS</text>
<text x="1315" y="425" font-size="11" fill="#555">Roof Pitch: 18.4° (1:3)</text>
<text x="1315" y="442" font-size="11" fill="#555">Eave Height: 3000mm</text>
<text x="1315" y="459" font-size="11" fill="#555">Ridge Height: +1750mm from eave</text>
<text x="1315" y="476" font-size="11" fill="#555">Rafter: 100×50mm Teak @ 600 c/c</text>
<text x="1315" y="493" font-size="11" fill="#555">Purlin: 100×75mm @ 1200 c/c</text>
<text x="1315" y="510" font-size="11" fill="#555">Waterproof membrane under tile</text>
<text x="1315" y="527" font-size="11" fill="#555">Insulation: 100mm glasswool</text>

<g transform="translate(1460,760)">
  <circle cx="0" cy="0" r="28" fill="white" stroke="#1a1a2e" stroke-width="2"/>
  <polygon points="0,-22 7,10 0,5 -7,10" fill="#1a1a2e"/>
  <polygon points="0,-22 -7,10 0,5 7,10" fill="#9eb1c8"/>
  <text x="0" y="-26" font-size="13" fill="#1a1a2e" text-anchor="middle" font-weight="bold">N</text>
</g>
<g transform="translate(1300,780)">
  <rect x="0" y="0" width="50" height="12" fill="#1a1a2e"/>
  <rect x="50" y="0" width="50" height="12" fill="white" stroke="#1a1a2e" stroke-width="1.5"/>
  <rect x="100" y="0" width="50" height="12" fill="#1a1a2e"/>
  <text x="0" y="26" font-size="11" fill="#1a1a2e">0</text>
  <text x="48" y="26" font-size="11" fill="#1a1a2e">5m</text>
  <text x="98" y="26" font-size="11" fill="#1a1a2e">10m</text>
  <text x="75" y="-4" font-size="11" fill="#5a6a80" text-anchor="middle">Scale 1:100</text>
</g>

<rect x="10" y="1022" width="1780" height="68" fill="#1a1a2e"/>
<line x1="10" y1="1022" x2="1790" y2="1022" stroke="#4a6a90" stroke-width="1"/>
<text x="30" y="1045" font-size="17" fill="white" font-weight="900">ROOF PLAN</text>
<text x="30" y="1067" font-size="12" fill="#a0c0e0">Drawing No: HBP-RF-003  |  House Building Project  |  Scale 1:100  |  Date: 09 Aug 2026</text>
<text x="900" y="1045" font-size="13" fill="#d0e4f8" text-anchor="middle" font-weight="bold">CLIENT: HOUSE BUILDING PROJECT</text>
<text x="900" y="1066" font-size="11" fill="#8ab0cc" text-anchor="middle">Drawn by: Arch. Division  |  Checked by: Structural Eng.  |  Approved by: Project Manager</text>
<text x="1770" y="1045" font-size="13" fill="#d0e4f8" text-anchor="end" font-weight="bold">BUILDTRACK</text>
<text x="1770" y="1066" font-size="11" fill="#8ab0cc" text-anchor="end">Construction Management Platform</text>
</svg>