<svg xmlns="http://www.w3.org/2000/svg" width="1800" height="1100" viewBox="0 0 1800 1100">
  <defs>
    <marker id="arr" markerWidth="8" markerHeight="8" refX="6" refY="3" orient="auto">
      <path d="M0,0 L0,6 L8,3 z" fill="#1a2744"/>
    </marker>
    <marker id="arr2" markerWidth="8" markerHeight="8" refX="2" refY="3" orient="auto">
      <path d="M8,0 L8,6 L0,3 z" fill="#1a2744"/>
    </marker>
    <filter id="dropshadow">
      <feDropShadow dx="2" dy="2" stdDeviation="3" flood-opacity="0.18"/>
    </filter>
    <pattern id="hatch" patternUnits="userSpaceOnUse" width="8" height="8" patternTransform="rotate(45)">
      <line x1="0" y1="0" x2="0" y2="8" stroke="#b0b0b0" stroke-width="1"/>
    </pattern>
  </defs>

  <!-- ═══════════════════════════════════════════════════════════
       BACKGROUND + BORDER
  ═══════════════════════════════════════════════════════════ -->
  <rect width="1800" height="1100" fill="#f5f7fa"/>
  <rect x="8" y="8" width="1784" height="1084" fill="none" stroke="#1a2744" stroke-width="2" stroke-dasharray="12,6"/>

  <!-- ═══════════════════════════════════════════════════════════
       GRID LINES (columns A–F, rows 1–4)
       Col X positions: A=120, B=370, C=620, D=870, E=1120, F=1370, G=1620
       Row Y positions: 1=120, 2=420, 3=700, 4=940
  ═══════════════════════════════════════════════════════════ -->
  <!-- Vertical grid lines -->
  <line x1="120" y1="80" x2="120" y2="980" stroke="#b0bdd0" stroke-width="1" stroke-dasharray="6,5" opacity="0.7"/>
  <line x1="370" y1="80" x2="370" y2="980" stroke="#b0bdd0" stroke-width="1" stroke-dasharray="6,5" opacity="0.7"/>
  <line x1="620" y1="80" x2="620" y2="980" stroke="#b0bdd0" stroke-width="1" stroke-dasharray="6,5" opacity="0.7"/>
  <line x1="870" y1="80" x2="870" y2="980" stroke="#b0bdd0" stroke-width="1" stroke-dasharray="6,5" opacity="0.7"/>
  <line x1="1120" y1="80" x2="1120" y2="980" stroke="#b0bdd0" stroke-width="1" stroke-dasharray="6,5" opacity="0.7"/>
  <line x1="1370" y1="80" x2="1370" y2="980" stroke="#b0bdd0" stroke-width="1" stroke-dasharray="6,5" opacity="0.7"/>
  <line x1="1620" y1="80" x2="1620" y2="980" stroke="#b0bdd0" stroke-width="1" stroke-dasharray="6,5" opacity="0.7"/>
  <!-- Horizontal grid lines -->
  <line x1="80" y1="120" x2="1660" y2="120" stroke="#b0bdd0" stroke-width="1" stroke-dasharray="6,5" opacity="0.7"/>
  <line x1="80" y1="420" x2="1660" y2="420" stroke="#b0bdd0" stroke-width="1" stroke-dasharray="6,5" opacity="0.7"/>
  <line x1="80" y1="700" x2="1660" y2="700" stroke="#b0bdd0" stroke-width="1" stroke-dasharray="6,5" opacity="0.7"/>
  <line x1="80" y1="940" x2="1660" y2="940" stroke="#b0bdd0" stroke-width="1" stroke-dasharray="6,5" opacity="0.7"/>

  <!-- ═══════════════════════════════════════════════════════════
       GRID BUBBLES — Columns (top)
  ═══════════════════════════════════════════════════════════ -->
  <circle cx="120" cy="55" r="16" fill="#1a2744"/><text x="120" y="60" font-family="Arial Black,Arial" font-size="14" fill="white" text-anchor="middle" font-weight="bold">A</text>
  <circle cx="370" cy="55" r="16" fill="#1a2744"/><text x="370" y="60" font-family="Arial Black,Arial" font-size="14" fill="white" text-anchor="middle" font-weight="bold">B</text>
  <circle cx="620" cy="55" r="16" fill="#1a2744"/><text x="620" y="60" font-family="Arial Black,Arial" font-size="14" fill="white" text-anchor="middle" font-weight="bold">C</text>
  <circle cx="870" cy="55" r="16" fill="#1a2744"/><text x="870" y="60" font-family="Arial Black,Arial" font-size="14" fill="white" text-anchor="middle" font-weight="bold">D</text>
  <circle cx="1120" cy="55" r="16" fill="#1a2744"/><text x="1120" y="60" font-family="Arial Black,Arial" font-size="14" fill="white" text-anchor="middle" font-weight="bold">E</text>
  <circle cx="1370" cy="55" r="16" fill="#1a2744"/><text x="1370" y="60" font-family="Arial Black,Arial" font-size="14" fill="white" text-anchor="middle" font-weight="bold">F</text>
  <circle cx="1620" cy="55" r="16" fill="#1a2744"/><text x="1620" y="60" font-family="Arial Black,Arial" font-size="14" fill="white" text-anchor="middle" font-weight="bold">G</text>

  <!-- GRID BUBBLES — Rows (left) -->
  <circle cx="55" cy="120" r="16" fill="#1a2744"/><text x="55" y="125" font-family="Arial Black,Arial" font-size="14" fill="white" text-anchor="middle" font-weight="bold">1</text>
  <circle cx="55" cy="420" r="16" fill="#1a2744"/><text x="55" y="425" font-family="Arial Black,Arial" font-size="14" fill="white" text-anchor="middle" font-weight="bold">2</text>
  <circle cx="55" cy="700" r="16" fill="#1a2744"/><text x="55" y="705" font-family="Arial Black,Arial" font-size="14" fill="white" text-anchor="middle" font-weight="bold">3</text>
  <circle cx="55" cy="940" r="16" fill="#1a2744"/><text x="55" y="945" font-family="Arial Black,Arial" font-size="14" fill="white" text-anchor="middle" font-weight="bold">4</text>

  <!-- ═══════════════════════════════════════════════════════════
       OUTER WALLS (thickness=18px)
  ═══════════════════════════════════════════════════════════ -->
  <!-- Top wall -->
  <rect x="102" y="111" width="1527" height="18" fill="#2a2a3a" stroke="#1a1a2a" stroke-width="1.5"/>
  <!-- Bottom wall -->
  <rect x="102" y="940" width="1527" height="18" fill="#2a2a3a" stroke="#1a1a2a" stroke-width="1.5"/>
  <!-- Left wall -->
  <rect x="102" y="111" width="18" height="847" fill="#2a2a3a" stroke="#1a1a2a" stroke-width="1.5"/>
  <!-- Right wall -->
  <rect x="1611" y="111" width="18" height="847" fill="#2a2a3a" stroke="#1a1a2a" stroke-width="1.5"/>

  <!-- ═══════════════════════════════════════════════════════════
       INTERIOR WALLS (thickness=12px, orange for distinction)
  ═══════════════════════════════════════════════════════════ -->
  <!-- Vertical dividers -->
  <!-- A–B divider col at x=370 -->
  <rect x="364" y="120" width="12" height="828" fill="#4a3010" stroke="#c06000" stroke-width="1"/>
  <!-- C divider at x=620 -->
  <rect x="614" y="120" width="12" height="828" fill="#4a3010" stroke="#c06000" stroke-width="1"/>
  <!-- D divider at x=870 -->
  <rect x="864" y="120" width="12" height="580" fill="#4a3010" stroke="#c06000" stroke-width="1"/>
  <!-- E divider at x=1120 -->
  <rect x="1114" y="120" width="12" height="580" fill="#4a3010" stroke="#c06000" stroke-width="1"/>
  <!-- F divider at x=1370 -->
  <rect x="1364" y="120" width="12" height="828" fill="#4a3010" stroke="#c06000" stroke-width="1"/>

  <!-- Horizontal dividers -->
  <!-- Row 2 divider at y=420 (partial) -->
  <rect x="120" y="414" width="1500" height="12" fill="#4a3010" stroke="#c06000" stroke-width="1"/>
  <!-- Row 3 divider at y=700 -->
  <rect x="120" y="694" width="1500" height="12" fill="#4a3010" stroke="#c06000" stroke-width="1"/>
  <!-- Mid staircase wall at y=580 (partial, from D to F) -->
  <rect x="864" y="574" width="512" height="12" fill="#4a3010" stroke="#c06000" stroke-width="1"/>

  <!-- ═══════════════════════════════════════════════════════════
       ROOM FILLS  (9 BHK: 9 bedrooms + living/kitchen/utility)
  ═══════════════════════════════════════════════════════════ -->
  <!-- ROW 1 (y=129 to y=414): 6 rooms across width -->
  <!-- Bed1 (A-B, R1): Living Room / Master Suite Entry -->
  <rect x="120" y="129" width="244" height="285" fill="#e8f0fe" opacity="0.85"/>
  <text x="242" y="248" font-family="Arial" font-size="13" fill="#1a3070" text-anchor="middle" font-weight="bold">MASTER</text>
  <text x="242" y="265" font-family="Arial" font-size="13" fill="#1a3070" text-anchor="middle" font-weight="bold">BEDROOM 1</text>
  <text x="242" y="282" font-family="Arial" font-size="11" fill="#4a6090" text-anchor="middle">5500 × 4800 mm</text>

  <!-- Bed2 (B-C, R1) -->
  <rect x="376" y="129" width="238" height="285" fill="#e8feee" opacity="0.85"/>
  <text x="495" y="248" font-family="Arial" font-size="13" fill="#1a5030" text-anchor="middle" font-weight="bold">BEDROOM 2</text>
  <text x="495" y="265" font-family="Arial" font-size="11" fill="#3a7040" text-anchor="middle">4500 × 4800 mm</text>

  <!-- Bed3 (C-D, R1) -->
  <rect x="626" y="129" width="238" height="285" fill="#fff8e0" opacity="0.85"/>
  <text x="745" y="248" font-family="Arial" font-size="13" fill="#705010" text-anchor="middle" font-weight="bold">BEDROOM 3</text>
  <text x="745" y="265" font-family="Arial" font-size="11" fill="#907030" text-anchor="middle">4500 × 4800 mm</text>

  <!-- Bed4 (D-E, R1) -->
  <rect x="876" y="129" width="238" height="285" fill="#fde8e8" opacity="0.85"/>
  <text x="995" y="248" font-family="Arial" font-size="13" fill="#701a1a" text-anchor="middle" font-weight="bold">BEDROOM 4</text>
  <text x="995" y="265" font-family="Arial" font-size="11" fill="#903030" text-anchor="middle">4500 × 4800 mm</text>

  <!-- Bed5 (E-F, R1) -->
  <rect x="1126" y="129" width="238" height="285" fill="#f0e8fe" opacity="0.85"/>
  <text x="1245" y="248" font-family="Arial" font-size="13" fill="#501a70" text-anchor="middle" font-weight="bold">BEDROOM 5</text>
  <text x="1245" y="265" font-family="Arial" font-size="11" fill="#703090" text-anchor="middle">4500 × 4800 mm</text>

  <!-- Bed6 (F-G, R1) -->
  <rect x="1376" y="129" width="235" height="285" fill="#feede8" opacity="0.85"/>
  <text x="1494" y="248" font-family="Arial" font-size="13" fill="#702010" text-anchor="middle" font-weight="bold">BEDROOM 6</text>
  <text x="1494" y="265" font-family="Arial" font-size="11" fill="#904030" text-anchor="middle">4500 × 4800 mm</text>

  <!-- ROW 2 (y=426 to y=694): Living, Kitchen, Dining, Bathrooms -->
  <!-- Living Room (A-C, R2) -->
  <rect x="120" y="426" width="494" height="268" fill="#fff9e8" opacity="0.9"/>
  <text x="367" y="536" font-family="Arial" font-size="15" fill="#5a4000" text-anchor="middle" font-weight="bold">LIVING ROOM</text>
  <text x="367" y="556" font-family="Arial" font-size="12" fill="#8a6020" text-anchor="middle">9500 × 4800 mm</text>

  <!-- Dining (C-D, R2) -->
  <rect x="626" y="426" width="238" height="268" fill="#e8fef4" opacity="0.9"/>
  <text x="745" y="540" font-family="Arial" font-size="13" fill="#106040" text-anchor="middle" font-weight="bold">DINING ROOM</text>
  <text x="745" y="557" font-family="Arial" font-size="11" fill="#208060" text-anchor="middle">4500 × 4800 mm</text>

  <!-- Kitchen (D-E, R2) -->
  <rect x="876" y="426" width="238" height="268" fill="#fef8e8" opacity="0.9"/>
  <text x="995" y="536" font-family="Arial" font-size="13" fill="#604000" text-anchor="middle" font-weight="bold">KITCHEN</text>
  <text x="995" y="553" font-family="Arial" font-size="11" fill="#906020" text-anchor="middle">4500 × 4800 mm</text>

  <!-- Staircase (D-F, R2 lower half: y=580–694) -->
  <rect x="876" y="580" width="500" height="108" fill="#1a1a2a" opacity="0.95"/>
  <!-- Stair treads -->
  <rect x="882" y="586" width="488" height="96" fill="url(#hatch)"/>
  <text x="1126" y="640" font-family="Arial" font-size="13" fill="#ccaa00" text-anchor="middle" font-weight="bold">STAIRCASE</text>
  <text x="1126" y="656" font-family="Arial" font-size="10" fill="#aa8800" text-anchor="middle">Dog-legged, 18 risers × 170mm</text>
  <!-- Stair arrows -->
  <line x1="890" y1="634" x2="980" y2="634" stroke="#ccaa00" stroke-width="2" marker-end="url(#arr)"/>
  <text x="930" y="626" font-family="Arial" font-size="9" fill="#ccaa00" text-anchor="middle">UP</text>

  <!-- Bath1 (E-F, R2 upper) -->
  <rect x="1126" y="426" width="238" height="154" fill="#e8f4fe" opacity="0.9"/>
  <text x="1245" y="498" font-family="Arial" font-size="13" fill="#102060" text-anchor="middle" font-weight="bold">BATH 1</text>
  <text x="1245" y="514" font-family="Arial" font-size="11" fill="#204080" text-anchor="middle">4500 × 2900 mm</text>

  <!-- Utility (F-G, R2) -->
  <rect x="1376" y="426" width="235" height="268" fill="#f0f0f0" opacity="0.9"/>
  <text x="1494" y="536" font-family="Arial" font-size="13" fill="#404040" text-anchor="middle" font-weight="bold">UTILITY /</text>
  <text x="1494" y="553" font-family="Arial" font-size="13" fill="#404040" text-anchor="middle" font-weight="bold">LAUNDRY</text>
  <text x="1494" y="570" font-family="Arial" font-size="11" fill="#606060" text-anchor="middle">4500 × 4800 mm</text>

  <!-- ROW 3 (y=706 to y=940): More bedrooms + toilets -->
  <!-- Bed7 (A-B, R3) -->
  <rect x="120" y="706" width="244" height="234" fill="#e8f0fe" opacity="0.85"/>
  <text x="242" y="810" font-family="Arial" font-size="13" fill="#1a3070" text-anchor="middle" font-weight="bold">BEDROOM 7</text>
  <text x="242" y="827" font-family="Arial" font-size="11" fill="#4a6090" text-anchor="middle">5500 × 4200 mm</text>

  <!-- Bed8 (B-C, R3) -->
  <rect x="376" y="706" width="238" height="234" fill="#e8feee" opacity="0.85"/>
  <text x="495" y="810" font-family="Arial" font-size="13" fill="#1a5030" text-anchor="middle" font-weight="bold">BEDROOM 8</text>
  <text x="495" y="827" font-family="Arial" font-size="11" fill="#3a7040" text-anchor="middle">4500 × 4200 mm</text>

  <!-- Bed9 (C-D, R3) -->
  <rect x="626" y="706" width="238" height="234" fill="#fff8e0" opacity="0.85"/>
  <text x="745" y="810" font-family="Arial" font-size="13" fill="#705010" text-anchor="middle" font-weight="bold">BEDROOM 9</text>
  <text x="745" y="827" font-family="Arial" font-size="11" fill="#907030" text-anchor="middle">4500 × 4200 mm</text>

  <!-- Toilet 1 (D-E, R3) -->
  <rect x="876" y="706" width="238" height="110" fill="#ddeeff" opacity="0.9"/>
  <text x="995" y="760" font-family="Arial" font-size="12" fill="#103060" text-anchor="middle" font-weight="bold">TOILET 1</text>
  <text x="995" y="775" font-family="Arial" font-size="10" fill="#204080" text-anchor="middle">4500 × 2000 mm</text>

  <!-- Toilet 2 (D-E, R3 lower) -->
  <rect x="876" y="816" width="238" height="124" fill="#ddeeff" opacity="0.9"/>
  <text x="995" y="872" font-family="Arial" font-size="12" fill="#103060" text-anchor="middle" font-weight="bold">TOILET 2</text>
  <text x="995" y="887" font-family="Arial" font-size="10" fill="#204080" text-anchor="middle">4500 × 2200 mm</text>

  <!-- Bath 2 (E-F, R3) -->
  <rect x="1126" y="706" width="238" height="234" fill="#e8f4fe" opacity="0.9"/>
  <text x="1245" y="816" font-family="Arial" font-size="13" fill="#102060" text-anchor="middle" font-weight="bold">BATH 2</text>
  <text x="1245" y="832" font-family="Arial" font-size="11" fill="#204080" text-anchor="middle">4500 × 4200 mm</text>

  <!-- Garage/Parking (F-G, R3) -->
  <rect x="1376" y="706" width="235" height="234" fill="#f0ece0" opacity="0.9"/>
  <text x="1494" y="810" font-family="Arial" font-size="13" fill="#504020" text-anchor="middle" font-weight="bold">GARAGE /</text>
  <text x="1494" y="827" font-family="Arial" font-size="13" fill="#504020" text-anchor="middle" font-weight="bold">PARKING</text>
  <text x="1494" y="844" font-family="Arial" font-size="11" fill="#706040" text-anchor="middle">4500 × 4200 mm</text>

  <!-- ═══════════════════════════════════════════════════════════
       COLUMNS (RCC 350×350 at all grid intersections)
  ═══════════════════════════════════════════════════════════ -->
  <!-- All grid intersection columns -->
  <!-- Row 1 cols -->
  <rect x="108" y="108" width="24" height="24" fill="#3a3a5a" stroke="#1a1a2a" stroke-width="2"/>
  <line x1="108" y1="108" x2="132" y2="132" stroke="#1a1a2a" stroke-width="1"/>
  <line x1="132" y1="108" x2="108" y2="132" stroke="#1a1a2a" stroke-width="1"/>

  <rect x="358" y="108" width="24" height="24" fill="#3a3a5a" stroke="#1a1a2a" stroke-width="2"/>
  <line x1="358" y1="108" x2="382" y2="132" stroke="#1a1a2a" stroke-width="1"/>
  <line x1="382" y1="108" x2="358" y2="132" stroke="#1a1a2a" stroke-width="1"/>

  <rect x="608" y="108" width="24" height="24" fill="#3a3a5a" stroke="#1a1a2a" stroke-width="2"/>
  <line x1="608" y1="108" x2="632" y2="132" stroke="#1a1a2a" stroke-width="1"/>
  <line x1="632" y1="108" x2="608" y2="132" stroke="#1a1a2a" stroke-width="1"/>

  <rect x="858" y="108" width="24" height="24" fill="#3a3a5a" stroke="#1a1a2a" stroke-width="2"/>
  <line x1="858" y1="108" x2="882" y2="132" stroke="#1a1a2a" stroke-width="1"/>
  <line x1="882" y1="108" x2="858" y2="132" stroke="#1a1a2a" stroke-width="1"/>

  <rect x="1108" y="108" width="24" height="24" fill="#3a3a5a" stroke="#1a1a2a" stroke-width="2"/>
  <line x1="1108" y1="108" x2="1132" y2="132" stroke="#1a1a2a" stroke-width="1"/>
  <line x1="1132" y1="108" x2="1108" y2="132" stroke="#1a1a2a" stroke-width="1"/>

  <rect x="1358" y="108" width="24" height="24" fill="#3a3a5a" stroke="#1a1a2a" stroke-width="2"/>
  <line x1="1358" y1="108" x2="1382" y2="132" stroke="#1a1a2a" stroke-width="1"/>
  <line x1="1382" y1="108" x2="1358" y2="132" stroke="#1a1a2a" stroke-width="1"/>

  <rect x="1608" y="108" width="24" height="24" fill="#3a3a5a" stroke="#1a1a2a" stroke-width="2"/>
  <line x1="1608" y1="108" x2="1632" y2="132" stroke="#1a1a2a" stroke-width="1"/>
  <line x1="1632" y1="108" x2="1608" y2="132" stroke="#1a1a2a" stroke-width="1"/>

  <!-- Row 2 cols -->
  <rect x="108" y="408" width="24" height="24" fill="#3a3a5a" stroke="#1a1a2a" stroke-width="2"/>
  <line x1="108" y1="408" x2="132" y2="432" stroke="#1a1a2a" stroke-width="1"/>
  <line x1="132" y1="408" x2="108" y2="432" stroke="#1a1a2a" stroke-width="1"/>

  <rect x="358" y="408" width="24" height="24" fill="#3a3a5a" stroke="#1a1a2a" stroke-width="2"/>
  <line x1="358" y1="408" x2="382" y2="432" stroke="#1a1a2a" stroke-width="1"/>
  <line x1="382" y1="408" x2="358" y2="432" stroke="#1a1a2a" stroke-width="1"/>

  <rect x="608" y="408" width="24" height="24" fill="#3a3a5a" stroke="#1a1a2a" stroke-width="2"/>
  <line x1="608" y1="408" x2="632" y2="432" stroke="#1a1a2a" stroke-width="1"/>
  <line x1="632" y1="408" x2="608" y2="432" stroke="#1a1a2a" stroke-width="1"/>

  <rect x="858" y="408" width="24" height="24" fill="#3a3a5a" stroke="#1a1a2a" stroke-width="2"/>
  <line x1="858" y1="408" x2="882" y2="432" stroke="#1a1a2a" stroke-width="1"/>
  <line x1="882" y1="408" x2="858" y2="432" stroke="#1a1a2a" stroke-width="1"/>

  <rect x="1108" y="408" width="24" height="24" fill="#3a3a5a" stroke="#1a1a2a" stroke-width="2"/>
  <line x1="1108" y1="408" x2="1132" y2="432" stroke="#1a1a2a" stroke-width="1"/>
  <line x1="1132" y1="408" x2="1108" y2="432" stroke="#1a1a2a" stroke-width="1"/>

  <rect x="1358" y="408" width="24" height="24" fill="#3a3a5a" stroke="#1a1a2a" stroke-width="2"/>
  <line x1="1358" y1="408" x2="1382" y2="432" stroke="#1a1a2a" stroke-width="1"/>
  <line x1="1382" y1="408" x2="1358" y2="432" stroke="#1a1a2a" stroke-width="1"/>

  <rect x="1608" y="408" width="24" height="24" fill="#3a3a5a" stroke="#1a1a2a" stroke-width="2"/>
  <line x1="1608" y1="408" x2="1632" y2="432" stroke="#1a1a2a" stroke-width="1"/>
  <line x1="1632" y1="408" x2="1608" y2="432" stroke="#1a1a2a" stroke-width="1"/>

  <!-- Row 3 cols -->
  <rect x="108" y="688" width="24" height="24" fill="#3a3a5a" stroke="#1a1a2a" stroke-width="2"/>
  <line x1="108" y1="688" x2="132" y2="712" stroke="#1a1a2a" stroke-width="1"/>
  <line x1="132" y1="688" x2="108" y2="712" stroke="#1a1a2a" stroke-width="1"/>

  <rect x="358" y="688" width="24" height="24" fill="#3a3a5a" stroke="#1a1a2a" stroke-width="2"/>
  <line x1="358" y1="688" x2="382" y2="712" stroke="#1a1a2a" stroke-width="1"/>
  <line x1="382" y1="688" x2="358" y2="712" stroke="#1a1a2a" stroke-width="1"/>

  <rect x="608" y="688" width="24" height="24" fill="#3a3a5a" stroke="#1a1a2a" stroke-width="2"/>
  <line x1="608" y1="688" x2="632" y2="712" stroke="#1a1a2a" stroke-width="1"/>
  <line x1="632" y1="688" x2="608" y2="712" stroke="#1a1a2a" stroke-width="1"/>

  <rect x="858" y="688" width="24" height="24" fill="#3a3a5a" stroke="#1a1a2a" stroke-width="2"/>
  <line x1="858" y1="688" x2="882" y2="712" stroke="#1a1a2a" stroke-width="1"/>
  <line x1="882" y1="688" x2="858" y2="712" stroke="#1a1a2a" stroke-width="1"/>

  <rect x="1108" y="688" width="24" height="24" fill="#3a3a5a" stroke="#1a1a2a" stroke-width="2"/>
  <line x1="1108" y1="688" x2="1132" y2="712" stroke="#1a1a2a" stroke-width="1"/>
  <line x1="1132" y1="688" x2="1108" y2="712" stroke="#1a1a2a" stroke-width="1"/>

  <rect x="1358" y="688" width="24" height="24" fill="#3a3a5a" stroke="#1a1a2a" stroke-width="2"/>
  <line x1="1358" y1="688" x2="1382" y2="712" stroke="#1a1a2a" stroke-width="1"/>
  <line x1="1382" y1="688" x2="1358" y2="712" stroke="#1a1a2a" stroke-width="1"/>

  <rect x="1608" y="688" width="24" height="24" fill="#3a3a5a" stroke="#1a1a2a" stroke-width="2"/>
  <line x1="1608" y1="688" x2="1632" y2="712" stroke="#1a1a2a" stroke-width="1"/>
  <line x1="1632" y1="688" x2="1608" y2="712" stroke="#1a1a2a" stroke-width="1"/>

  <!-- Row 4 cols -->
  <rect x="108" y="928" width="24" height="24" fill="#3a3a5a" stroke="#1a1a2a" stroke-width="2"/>
  <line x1="108" y1="928" x2="132" y2="952" stroke="#1a1a2a" stroke-width="1"/>
  <line x1="132" y1="928" x2="108" y2="952" stroke="#1a1a2a" stroke-width="1"/>

  <rect x="358" y="928" width="24" height="24" fill="#3a3a5a" stroke="#1a1a2a" stroke-width="2"/>
  <line x1="358" y1="928" x2="382" y2="952" stroke="#1a1a2a" stroke-width="1"/>
  <line x1="382" y1="928" x2="358" y2="952" stroke="#1a1a2a" stroke-width="1"/>

  <rect x="608" y="928" width="24" height="24" fill="#3a3a5a" stroke="#1a1a2a" stroke-width="2"/>
  <line x1="608" y1="928" x2="632" y2="952" stroke="#1a1a2a" stroke-width="1"/>
  <line x1="632" y1="928" x2="608" y2="952" stroke="#1a1a2a" stroke-width="1"/>

  <rect x="858" y="928" width="24" height="24" fill="#3a3a5a" stroke="#1a1a2a" stroke-width="2"/>
  <line x1="858" y1="928" x2="882" y2="952" stroke="#1a1a2a" stroke-width="1"/>
  <line x1="882" y1="928" x2="858" y2="952" stroke="#1a1a2a" stroke-width="1"/>

  <rect x="1108" y="928" width="24" height="24" fill="#3a3a5a" stroke="#1a1a2a" stroke-width="2"/>
  <line x1="1108" y1="928" x2="1132" y2="952" stroke="#1a1a2a" stroke-width="1"/>
  <line x1="1132" y1="928" x2="1108" y2="952" stroke="#1a1a2a" stroke-width="1"/>

  <rect x="1358" y="928" width="24" height="24" fill="#3a3a5a" stroke="#1a1a2a" stroke-width="2"/>
  <line x1="1358" y1="928" x2="1382" y2="952" stroke="#1a1a2a" stroke-width="1"/>
  <line x1="1382" y1="928" x2="1358" y2="952" stroke="#1a1a2a" stroke-width="1"/>

  <rect x="1608" y="928" width="24" height="24" fill="#3a3a5a" stroke="#1a1a2a" stroke-width="2"/>
  <line x1="1608" y1="928" x2="1632" y2="952" stroke="#1a1a2a" stroke-width="1"/>
  <line x1="1632" y1="928" x2="1608" y2="952" stroke="#1a1a2a" stroke-width="1"/>

  <!-- ═══════════════════════════════════════════════════════════
       DOORS (arc swing)
  ═══════════════════════════════════════════════════════════ -->
  <!-- Main entrance door (bottom wall, center) -->
  <line x1="870" y1="940" x2="970" y2="940" stroke="#2a2a3a" stroke-width="7"/>
  <line x1="870" y1="940" x2="870" y2="880" stroke="#8B1a1a" stroke-width="3"/>
  <path d="M870,940 A60,60 0 0,0 930,880" fill="none" stroke="#8B1a1a" stroke-width="2"/>
  <text x="900" y="935" font-family="Arial" font-size="10" fill="#300" text-anchor="middle">MAIN DOOR</text>

  <!-- Bed1 door (left wall) -->
  <line x1="120" y1="200" x2="120" y2="260" stroke="#2a2a3a" stroke-width="6"/>
  <line x1="120" y1="205" x2="180" y2="205" stroke="#8B3000" stroke-width="2.5"/>
  <path d="M120,205 A60,60 0 0,1 180,265" fill="none" stroke="#8B3000" stroke-width="1.8"/>
  <text x="150" y="235" font-family="Arial" font-size="9" fill="#600" text-anchor="middle">D1</text>

  <!-- Bed2 door (top wall) -->
  <line x1="376" y1="129" x2="440" y2="129" stroke="#2a2a3a" stroke-width="6"/>
  <line x1="382" y1="129" x2="382" y2="195" stroke="#8B3000" stroke-width="2.5"/>
  <path d="M382,129 A66,66 0 0,1 448,195" fill="none" stroke="#8B3000" stroke-width="1.8"/>
  <text x="415" y="165" font-family="Arial" font-size="9" fill="#600" text-anchor="middle">D2</text>

  <!-- Bed3 door -->
  <line x1="626" y1="129" x2="690" y2="129" stroke="#2a2a3a" stroke-width="6"/>
  <line x1="632" y1="129" x2="632" y2="195" stroke="#8B3000" stroke-width="2.5"/>
  <path d="M632,129 A66,66 0 0,1 698,195" fill="none" stroke="#8B3000" stroke-width="1.8"/>
  <text x="665" y="162" font-family="Arial" font-size="9" fill="#600" text-anchor="middle">D3</text>

  <!-- Bed4 door -->
  <line x1="876" y1="129" x2="940" y2="129" stroke="#2a2a3a" stroke-width="6"/>
  <line x1="882" y1="129" x2="882" y2="195" stroke="#8B3000" stroke-width="2.5"/>
  <path d="M882,129 A66,66 0 0,1 948,195" fill="none" stroke="#8B3000" stroke-width="1.8"/>
  <text x="915" y="162" font-family="Arial" font-size="9" fill="#600" text-anchor="middle">D4</text>

  <!-- Bed5 door -->
  <line x1="1126" y1="129" x2="1190" y2="129" stroke="#2a2a3a" stroke-width="6"/>
  <line x1="1132" y1="129" x2="1132" y2="195" stroke="#8B3000" stroke-width="2.5"/>
  <path d="M1132,129 A66,66 0 0,1 1198,195" fill="none" stroke="#8B3000" stroke-width="1.8"/>
  <text x="1165" y="162" font-family="Arial" font-size="9" fill="#600" text-anchor="middle">D5</text>

  <!-- Bed6 door -->
  <line x1="1376" y1="129" x2="1440" y2="129" stroke="#2a2a3a" stroke-width="6"/>
  <line x1="1382" y1="129" x2="1382" y2="195" stroke="#8B3000" stroke-width="2.5"/>
  <path d="M1382,129 A66,66 0 0,1 1448,195" fill="none" stroke="#8B3000" stroke-width="1.8"/>
  <text x="1415" y="162" font-family="Arial" font-size="9" fill="#600" text-anchor="middle">D6</text>

  <!-- Bed7 door -->
  <line x1="120" y1="760" x2="120" y2="820" stroke="#2a2a3a" stroke-width="6"/>
  <line x1="120" y1="766" x2="180" y2="766" stroke="#8B3000" stroke-width="2.5"/>
  <path d="M120,766 A60,60 0 0,1 180,826" fill="none" stroke="#8B3000" stroke-width="1.8"/>
  <text x="150" y="796" font-family="Arial" font-size="9" fill="#600" text-anchor="middle">D7</text>

  <!-- Bed8 door -->
  <line x1="376" y1="706" x2="440" y2="706" stroke="#2a2a3a" stroke-width="6"/>
  <line x1="382" y1="706" x2="382" y2="770" stroke="#8B3000" stroke-width="2.5"/>
  <path d="M382,706 A64,64 0 0,1 446,770" fill="none" stroke="#8B3000" stroke-width="1.8"/>
  <text x="415" y="740" font-family="Arial" font-size="9" fill="#600" text-anchor="middle">D8</text>

  <!-- Bed9 door -->
  <line x1="626" y1="706" x2="690" y2="706" stroke="#2a2a3a" stroke-width="6"/>
  <line x1="632" y1="706" x2="632" y2="770" stroke="#8B3000" stroke-width="2.5"/>
  <path d="M632,706 A64,64 0 0,1 696,770" fill="none" stroke="#8B3000" stroke-width="1.8"/>
  <text x="665" y="740" font-family="Arial" font-size="9" fill="#600" text-anchor="middle">D9</text>

  <!-- Kitchen door -->
  <line x1="876" y1="426" x2="940" y2="426" stroke="#2a2a3a" stroke-width="6"/>
  <line x1="882" y1="426" x2="882" y2="490" stroke="#8B3000" stroke-width="2.5"/>
  <path d="M882,426 A64,64 0 0,1 946,490" fill="none" stroke="#8B3000" stroke-width="1.8"/>
  <text x="915" y="460" font-family="Arial" font-size="9" fill="#600" text-anchor="middle">DK</text>

  <!-- Toilet1 door -->
  <line x1="876" y1="760" x2="940" y2="760" stroke="#2a2a3a" stroke-width="6"/>
  <line x1="882" y1="760" x2="882" y2="810" stroke="#8B3000" stroke-width="2.5"/>
  <path d="M882,760 A50,50 0 0,1 932,810" fill="none" stroke="#8B3000" stroke-width="1.8"/>
  <text x="912" y="790" font-family="Arial" font-size="9" fill="#600" text-anchor="middle">DT1</text>

  <!-- ═══════════════════════════════════════════════════════════
       WINDOWS (double line symbols)
  ═══════════════════════════════════════════════════════════ -->
  <!-- Top wall windows -->
  <rect x="150" y="111" width="90" height="18" fill="#b0d8ff" stroke="#4488cc" stroke-width="1.5"/>
  <line x1="180" y1="111" x2="180" y2="129" stroke="#4488cc" stroke-width="1"/>
  <line x1="210" y1="111" x2="210" y2="129" stroke="#4488cc" stroke-width="1"/>
  <text x="195" y="108" font-family="Arial" font-size="8" fill="#224488" text-anchor="middle">W1</text>

  <rect x="420" y="111" width="90" height="18" fill="#b0d8ff" stroke="#4488cc" stroke-width="1.5"/>
  <line x1="450" y1="111" x2="450" y2="129" stroke="#4488cc" stroke-width="1"/>
  <line x1="480" y1="111" x2="480" y2="129" stroke="#4488cc" stroke-width="1"/>
  <text x="465" y="108" font-family="Arial" font-size="8" fill="#224488" text-anchor="middle">W2</text>

  <rect x="670" y="111" width="90" height="18" fill="#b0d8ff" stroke="#4488cc" stroke-width="1.5"/>
  <line x1="700" y1="111" x2="700" y2="129" stroke="#4488cc" stroke-width="1"/>
  <line x1="730" y1="111" x2="730" y2="129" stroke="#4488cc" stroke-width="1"/>
  <text x="715" y="108" font-family="Arial" font-size="8" fill="#224488" text-anchor="middle">W3</text>

  <rect x="920" y="111" width="90" height="18" fill="#b0d8ff" stroke="#4488cc" stroke-width="1.5"/>
  <line x1="950" y1="111" x2="950" y2="129" stroke="#4488cc" stroke-width="1"/>
  <line x1="980" y1="111" x2="980" y2="129" stroke="#4488cc" stroke-width="1"/>
  <text x="965" y="108" font-family="Arial" font-size="8" fill="#224488" text-anchor="middle">W4</text>

  <rect x="1170" y="111" width="90" height="18" fill="#b0d8ff" stroke="#4488cc" stroke-width="1.5"/>
  <line x1="1200" y1="111" x2="1200" y2="129" stroke="#4488cc" stroke-width="1"/>
  <line x1="1230" y1="111" x2="1230" y2="129" stroke="#4488cc" stroke-width="1"/>
  <text x="1215" y="108" font-family="Arial" font-size="8" fill="#224488" text-anchor="middle">W5</text>

  <rect x="1420" y="111" width="90" height="18" fill="#b0d8ff" stroke="#4488cc" stroke-width="1.5"/>
  <line x1="1450" y1="111" x2="1450" y2="129" stroke="#4488cc" stroke-width="1"/>
  <line x1="1480" y1="111" x2="1480" y2="129" stroke="#4488cc" stroke-width="1"/>
  <text x="1465" y="108" font-family="Arial" font-size="8" fill="#224488" text-anchor="middle">W6</text>

  <!-- Left wall windows -->
  <rect x="102" y="180" width="18" height="80" fill="#b0d8ff" stroke="#4488cc" stroke-width="1.5"/>
  <line x1="102" y1="213" x2="120" y2="213" stroke="#4488cc" stroke-width="1"/>
  <text x="94" y="225" font-family="Arial" font-size="8" fill="#224488" text-anchor="middle">W7</text>

  <rect x="102" y="460" width="18" height="80" fill="#b0d8ff" stroke="#4488cc" stroke-width="1.5"/>
  <line x1="102" y1="500" x2="120" y2="500" stroke="#4488cc" stroke-width="1"/>
  <text x="94" y="505" font-family="Arial" font-size="8" fill="#224488" text-anchor="middle">W8</text>

  <rect x="102" y="760" width="18" height="80" fill="#b0d8ff" stroke="#4488cc" stroke-width="1.5"/>
  <line x1="102" y1="800" x2="120" y2="800" stroke="#4488cc" stroke-width="1"/>
  <text x="94" y="805" font-family="Arial" font-size="8" fill="#224488" text-anchor="middle">W9</text>

  <!-- Right wall windows -->
  <rect x="1611" y="180" width="18" height="80" fill="#b0d8ff" stroke="#4488cc" stroke-width="1.5"/>
  <line x1="1611" y1="220" x2="1629" y2="220" stroke="#4488cc" stroke-width="1"/>
  <text x="1646" y="225" font-family="Arial" font-size="8" fill="#224488" text-anchor="middle">W10</text>

  <rect x="1611" y="460" width="18" height="80" fill="#b0d8ff" stroke="#4488cc" stroke-width="1.5"/>
  <line x1="1611" y1="500" x2="1629" y2="500" stroke="#4488cc" stroke-width="1"/>
  <text x="1646" y="505" font-family="Arial" font-size="8" fill="#224488" text-anchor="middle">W11</text>

  <!-- ═══════════════════════════════════════════════════════════
       DIMENSION LINES (horizontal + vertical)
  ═══════════════════════════════════════════════════════════ -->
  <!-- Top dimension line (total width) -->
  <line x1="120" y1="88" x2="1629" y2="88" stroke="#1a2744" stroke-width="1.5" marker-start="url(#arr2)" marker-end="url(#arr)"/>
  <text x="875" y="84" font-family="Arial" font-size="12" fill="#1a2744" text-anchor="middle" font-weight="bold">15000 mm</text>

  <!-- Segment dimensions top -->
  <line x1="120" y1="97" x2="370" y2="97" stroke="#1a2744" stroke-width="1" marker-start="url(#arr2)" marker-end="url(#arr)"/>
  <text x="245" y="93" font-family="Arial" font-size="10" fill="#1a2744" text-anchor="middle">2500</text>

  <line x1="370" y1="97" x2="620" y2="97" stroke="#1a2744" stroke-width="1" marker-start="url(#arr2)" marker-end="url(#arr)"/>
  <text x="495" y="93" font-family="Arial" font-size="10" fill="#1a2744" text-anchor="middle">2500</text>

  <line x1="620" y1="97" x2="870" y2="97" stroke="#1a2744" stroke-width="1" marker-start="url(#arr2)" marker-end="url(#arr)"/>
  <text x="745" y="93" font-family="Arial" font-size="10" fill="#1a2744" text-anchor="middle">2500</text>

  <line x1="870" y1="97" x2="1120" y2="97" stroke="#1a2744" stroke-width="1" marker-start="url(#arr2)" marker-end="url(#arr)"/>
  <text x="995" y="93" font-family="Arial" font-size="10" fill="#1a2744" text-anchor="middle">2500</text>

  <line x1="1120" y1="97" x2="1370" y2="97" stroke="#1a2744" stroke-width="1" marker-start="url(#arr2)" marker-end="url(#arr)"/>
  <text x="1245" y="93" font-family="Arial" font-size="10" fill="#1a2744" text-anchor="middle">2500</text>

  <line x1="1370" y1="97" x2="1629" y2="97" stroke="#1a2744" stroke-width="1" marker-start="url(#arr2)" marker-end="url(#arr)"/>
  <text x="1500" y="93" font-family="Arial" font-size="10" fill="#1a2744" text-anchor="middle">2500</text>

  <!-- Left dimension line (total height) -->
  <line x1="75" y1="120" x2="75" y2="958" stroke="#1a2744" stroke-width="1.5" marker-start="url(#arr2)" marker-end="url(#arr)"/>
  <text x="62" y="540" font-family="Arial" font-size="12" fill="#1a2744" text-anchor="middle" font-weight="bold" transform="rotate(-90,62,540)">8380 mm</text>

  <!-- Segment dimensions left -->
  <line x1="83" y1="120" x2="83" y2="420" stroke="#1a2744" stroke-width="1" marker-start="url(#arr2)" marker-end="url(#arr)"/>
  <text x="92" y="275" font-family="Arial" font-size="9" fill="#1a2744" text-anchor="middle" transform="rotate(-90,92,275)">3000</text>

  <line x1="83" y1="420" x2="83" y2="700" stroke="#1a2744" stroke-width="1" marker-start="url(#arr2)" marker-end="url(#arr)"/>
  <text x="92" y="560" font-family="Arial" font-size="9" fill="#1a2744" text-anchor="middle" transform="rotate(-90,92,560)">2800</text>

  <line x1="83" y1="700" x2="83" y2="958" stroke="#1a2744" stroke-width="1" marker-start="url(#arr2)" marker-end="url(#arr)"/>
  <text x="92" y="830" font-family="Arial" font-size="9" fill="#1a2744" text-anchor="middle" transform="rotate(-90,92,830)">2580</text>

  <!-- ═══════════════════════════════════════════════════════════
       WALL THICKNESS CALLOUTS
  ═══════════════════════════════════════════════════════════ -->
  <line x1="200" y1="111" x2="200" y2="95" stroke="#cc4400" stroke-width="1"/>
  <line x1="218" y1="111" x2="218" y2="95" stroke="#cc4400" stroke-width="1"/>
  <line x1="198" y1="95" x2="240" y2="95" stroke="#cc4400" stroke-width="1" marker-end="url(#arr)"/>
  <text x="255" y="98" font-family="Arial" font-size="9" fill="#cc4400">230 TK</text>

  <!-- ═══════════════════════════════════════════════════════════
       NORTH ARROW
  ═══════════════════════════════════════════════════════════ -->
  <g transform="translate(1710,130)">
    <circle cx="0" cy="0" r="28" fill="white" stroke="#1a2744" stroke-width="2"/>
    <polygon points="0,-22 7,10 0,5 -7,10" fill="#1a2744"/>
    <polygon points="0,-22 -7,10 0,5 7,10" fill="#8a9ab0"/>
    <text x="0" y="-28" font-family="Arial Black" font-size="13" fill="#1a2744" text-anchor="middle" font-weight="bold">N</text>
  </g>

  <!-- ═══════════════════════════════════════════════════════════
       SCALE BAR
  ═══════════════════════════════════════════════════════════ -->
  <g transform="translate(1600,990)">
    <rect x="0" y="0" width="70" height="12" fill="#1a2744"/>
    <rect x="70" y="0" width="70" height="12" fill="white" stroke="#1a2744" stroke-width="1"/>
    <text x="0" y="26" font-family="Arial" font-size="11" fill="#1a2744">0</text>
    <text x="65" y="26" font-family="Arial" font-size="11" fill="#1a2744">5m</text>
    <text x="70" y="-4" font-family="Arial" font-size="11" fill="#555" text-anchor="middle">Scale 1:100</text>
  </g>

  <!-- ═══════════════════════════════════════════════════════════
       COLUMN LABELS (at key intersections)
  ═══════════════════════════════════════════════════════════ -->
  <text x="120" y="145" font-family="Arial" font-size="9" fill="#cc4400" text-anchor="middle">C-A1</text>
  <text x="370" y="145" font-family="Arial" font-size="9" fill="#cc4400" text-anchor="middle">C-B1</text>
  <text x="620" y="145" font-family="Arial" font-size="9" fill="#cc4400" text-anchor="middle">C-C1</text>
  <text x="870" y="145" font-family="Arial" font-size="9" fill="#cc4400" text-anchor="middle">C-D1</text>
  <text x="1120" y="145" font-family="Arial" font-size="9" fill="#cc4400" text-anchor="middle">C-E1</text>
  <text x="1370" y="145" font-family="Arial" font-size="9" fill="#cc4400" text-anchor="middle">C-F1</text>
  <text x="1620" y="145" font-family="Arial" font-size="9" fill="#cc4400" text-anchor="middle">C-G1</text>

  <!-- ═══════════════════════════════════════════════════════════
       TITLE BLOCK
  ═══════════════════════════════════════════════════════════ -->
  <rect x="0" y="1020" width="1800" height="80" fill="#1a2744"/>
  <line x1="0" y1="1040" x2="1800" y2="1040" stroke="#2a4070" stroke-width="1"/>
  <text x="24" y="1038" font-family="Arial Black,Arial" font-size="20" fill="#ffffff" font-weight="bold">9 BHK HOUSE — GROUND FLOOR PLAN</text>
  <text x="24" y="1062" font-family="Arial,sans-serif" font-size="13" fill="#a0b4d0">Drawing No: 9BHK-GF-001   |   Scale: 1:100   |   Date: 17 Aug 2026   |   All dimensions in mm   |   Wall Thickness: Outer 230mm, Inner 115mm</text>
  <text x="24" y="1078" font-family="Arial,sans-serif" font-size="12" fill="#7090b0">Structural System: RCC Frame   |   Column Size: 350×350mm   |   Slab Thickness: 125mm   |   Ceiling Height: 3000mm</text>
  <text x="1776" y="1065" font-family="Arial,sans-serif" font-size="11" fill="#a0b4d0" text-anchor="end">© BuildTrack Construction Management</text>
</svg>
