<svg xmlns="http://www.w3.org/2000/svg" width="1800" height="1100" viewBox="0 0 1800 1100">
  <defs>
    <!-- Roof tile hatch pattern -->
    <pattern id="roofTile" x="0" y="0" width="30" height="20" patternUnits="userSpaceOnUse">
      <rect width="30" height="20" fill="#c8b49a"/>
      <line x1="0" y1="10" x2="30" y2="10" stroke="#a08060" stroke-width="0.8"/>
      <line x1="15" y1="0" x2="15" y2="10" stroke="#a08060" stroke-width="0.5"/>
      <line x1="0" y1="10" x2="0" y2="20" stroke="#a08060" stroke-width="0.5"/>
      <line x1="30" y1="10" x2="30" y2="20" stroke="#a08060" stroke-width="0.5"/>
    </pattern>
    <!-- Flat slab hatch -->
    <pattern id="flatSlab" x="0" y="0" width="20" height="20" patternUnits="userSpaceOnUse">
      <rect width="20" height="20" fill="#d8d0c8"/>
      <line x1="0" y1="0" x2="20" y2="20" stroke="#b0a898" stroke-width="0.6"/>
    </pattern>
    <!-- Terrace waterproof hatch -->
    <pattern id="terraceHatch" x="0" y="0" width="15" height="15" patternUnits="userSpaceOnUse">
      <rect width="15" height="15" fill="#b8d4c0"/>
      <line x1="0" y1="15" x2="15" y2="0" stroke="#70a880" stroke-width="0.7"/>
    </pattern>
    <!-- Column hatch -->
    <pattern id="colHatch" x="0" y="0" width="6" height="6" patternUnits="userSpaceOnUse">
      <line x1="0" y1="0" x2="6" y2="6" stroke="#fff" stroke-width="0.8"/>
    </pattern>
  </defs>

  <!-- Background -->
  <rect width="1800" height="1100" fill="#e8e4e0"/>

  <!-- ===== DRAWING AREA BORDER ===== -->
  <rect x="60" y="60" width="1680" height="960" fill="#f5f0eb" stroke="#2a2a3a" stroke-width="2"/>

  <!-- ===== GRID REFERENCE LINES ===== -->
  <g stroke="#c0b0a0" stroke-width="0.5" stroke-dasharray="6,4" opacity="0.8">
    <line x1="120" y1="80" x2="120" y2="980"/>
    <line x1="370" y1="80" x2="370" y2="980"/>
    <line x1="620" y1="80" x2="620" y2="980"/>
    <line x1="870" y1="80" x2="870" y2="980"/>
    <line x1="1120" y1="80" x2="1120" y2="980"/>
    <line x1="1370" y1="80" x2="1370" y2="980"/>
    <line x1="1620" y1="80" x2="1620" y2="980"/>
    <line x1="80" y1="120" x2="1720" y2="120"/>
    <line x1="80" y1="420" x2="1720" y2="420"/>
    <line x1="80" y1="700" x2="1720" y2="700"/>
    <line x1="80" y1="940" x2="1720" y2="940"/>
  </g>

  <!-- ===== ROOF OUTLINE (outer parapet wall) ===== -->
  <rect x="111" y="111" width="1518" height="838" fill="none" stroke="#2a2a3a" stroke-width="3"/>

  <!-- ===== PARAPET WALLS (outer edge) ===== -->
  <rect x="111" y="111" width="1518" height="18" fill="#8a7a6a"/>
  <rect x="111" y="931" width="1518" height="18" fill="#8a7a6a"/>
  <rect x="111" y="111" width="18" height="838" fill="#8a7a6a"/>
  <rect x="1629" y="111" width="18" height="838" fill="#8a7a6a"/>

  <!-- ===== MAIN ROOF SECTIONS ===== -->

  <!-- SECTION 1: A1-D2 — Hip Roof (main block) -->
  <polygon points="120,120 870,120 870,420 120,420" fill="url(#roofTile)" opacity="0.85"/>
  <!-- Hip lines from corners -->
  <g stroke="#7a5a30" stroke-width="2" stroke-dasharray="none">
    <!-- Ridge line at center -->
    <line x1="245" y1="200" x2="745" y2="200" stroke="#5a3a10" stroke-width="3"/>
    <!-- Hip diagonals -->
    <line x1="120" y1="120" x2="245" y2="200" stroke="#7a5a30" stroke-width="2"/>
    <line x1="870" y1="120" x2="745" y2="200" stroke="#7a5a30" stroke-width="2"/>
    <line x1="120" y1="420" x2="245" y2="200" stroke="#7a5a30" stroke-width="2"/>
    <line x1="870" y1="420" x2="745" y2="200" stroke="#7a5a30" stroke-width="2"/>
  </g>
  <!-- Ridge label -->
  <text x="445" y="196" font-family="Arial" font-size="9" fill="#5a3a10" text-anchor="middle" font-style="italic">RIDGE (RL+7800)</text>
  <!-- Slope arrows -->
  <g stroke="#a06030" stroke-width="1" fill="#a06030">
    <line x1="300" y1="200" x2="300" y2="140"/>
    <polygon points="300,135 296,148 304,148"/>
    <text x="308" y="170" font-family="Arial" font-size="8" fill="#7a4010">1:3</text>
    <line x1="300" y1="200" x2="300" y2="410"/>
    <polygon points="300,415 296,402 304,402"/>
  </g>

  <!-- SECTION 2: D1-G2 — Gable Roof (secondary block) -->
  <polygon points="870,120 1620,120 1620,420 870,420" fill="url(#roofTile)" opacity="0.75"/>
  <!-- Ridge line -->
  <line x1="870" y1="270" x2="1620" y2="270" stroke="#5a3a10" stroke-width="3"/>
  <!-- Valley at D col -->
  <line x1="870" y1="120" x2="870" y2="270" stroke="#3a2a10" stroke-width="2" stroke-dasharray="5,3"/>
  <line x1="870" y1="420" x2="870" y2="270" stroke="#3a2a10" stroke-width="2" stroke-dasharray="5,3"/>
  <text x="1245" y="266" font-family="Arial" font-size="9" fill="#5a3a10" text-anchor="middle" font-style="italic">RIDGE (RL+7800)</text>
  <!-- Gable ends -->
  <line x1="870" y1="120" x2="870" y2="270" stroke="#7a5a30" stroke-width="1.5"/>
  <line x1="1620" y1="120" x2="1620" y2="270" stroke="#7a5a30" stroke-width="1.5"/>
  <line x1="870" y1="420" x2="870" y2="270" stroke="#7a5a30" stroke-width="1.5"/>
  <line x1="1620" y1="420" x2="1620" y2="270" stroke="#7a5a30" stroke-width="1.5"/>

  <!-- SECTION 3: A2-D3 — Flat Slab (living/dining area) -->
  <polygon points="120,420 870,420 870,700 120,700" fill="url(#flatSlab)" opacity="0.9"/>
  <text x="495" y="550" font-family="Arial" font-size="13" fill="#4a3a2a" text-anchor="middle" font-weight="bold">FLAT ROOF SLAB</text>
  <text x="495" y="568" font-family="Arial" font-size="10" fill="#6a5a4a" text-anchor="middle">RL +6600mm FFL</text>
  <text x="495" y="584" font-family="Arial" font-size="9" fill="#888" text-anchor="middle">Waterproof Treatment</text>
  <!-- Slope drain arrows -->
  <g stroke="#4080a0" stroke-width="1.5" fill="#4080a0">
    <line x1="250" y1="500" x2="250" y2="580"/>
    <polygon points="250,586 245,572 255,572"/>
    <text x="260" y="548" font-family="Arial" font-size="8" fill="#2060a0">DRAIN</text>
    <circle cx="250" cy="590" r="5" fill="#2060a0" opacity="0.7"/>
  </g>

  <!-- SECTION 4: D2-G3 — Terrace (open) -->
  <polygon points="870,420 1620,420 1620,700 870,700" fill="url(#terraceHatch)" opacity="0.8"/>
  <rect x="870" y="420" width="750" height="280" fill="none" stroke="#3a7a50" stroke-width="2" stroke-dasharray="8,4"/>
  <text x="1245" y="540" font-family="Arial" font-size="14" fill="#2a6040" text-anchor="middle" font-weight="bold">OPEN TERRACE</text>
  <text x="1245" y="558" font-family="Arial" font-size="10" fill="#4a8060" text-anchor="middle">RL +6600mm</text>
  <text x="1245" y="574" font-family="Arial" font-size="9" fill="#4a8060" text-anchor="middle">Waterproof + IPS Finish</text>
  <!-- Drain point -->
  <circle cx="1245" cy="600" r="6" fill="#2060a0" opacity="0.7"/>
  <text x="1255" y="610" font-family="Arial" font-size="8" fill="#2060a0">RWP-3</text>

  <!-- SECTION 5: A3-D4 — Hip Roof (rear bedrooms) -->
  <polygon points="120,700 870,700 870,940 120,940" fill="url(#roofTile)" opacity="0.8"/>
  <!-- Ridge -->
  <line x1="245" y1="780" x2="745" y2="780" stroke="#5a3a10" stroke-width="3"/>
  <line x1="120" y1="700" x2="245" y2="780" stroke="#7a5a30" stroke-width="2"/>
  <line x1="870" y1="700" x2="745" y2="780" stroke="#7a5a30" stroke-width="2"/>
  <line x1="120" y1="940" x2="245" y2="780" stroke="#7a5a30" stroke-width="2"/>
  <line x1="870" y1="940" x2="745" y2="780" stroke="#7a5a30" stroke-width="2"/>
  <text x="445" y="776" font-family="Arial" font-size="9" fill="#5a3a10" text-anchor="middle" font-style="italic">RIDGE (RL+7100)</text>

  <!-- SECTION 6: D3-G4 — Hip Roof (rear right) -->
  <polygon points="870,700 1620,700 1620,940 870,940" fill="url(#roofTile)" opacity="0.72"/>
  <!-- Ridge -->
  <line x1="870" y1="820" x2="1620" y2="820" stroke="#5a3a10" stroke-width="3"/>
  <line x1="870" y1="700" x2="870" y2="820" stroke="#7a5a30" stroke-width="2"/>
  <line x1="1620" y1="700" x2="1620" y2="820" stroke="#7a5a30" stroke-width="2"/>
  <line x1="870" y1="940" x2="870" y2="820" stroke="#7a5a30" stroke-width="2"/>
  <line x1="1620" y1="940" x2="1620" y2="820" stroke="#7a5a30" stroke-width="2"/>
  <text x="1245" y="816" font-family="Arial" font-size="9" fill="#5a3a10" text-anchor="middle" font-style="italic">RIDGE (RL+7100)</text>

  <!-- ===== COLUMNS (28 RCC Columns — roof level) ===== -->
  <g>
    <rect x="108" y="108" width="24" height="24" fill="#3a2a1a" stroke="#111" stroke-width="1"/>
    <rect x="108" y="108" width="24" height="24" fill="url(#colHatch)"/>
    <rect x="358" y="108" width="24" height="24" fill="#3a2a1a" stroke="#111" stroke-width="1"/>
    <rect x="358" y="108" width="24" height="24" fill="url(#colHatch)"/>
    <rect x="608" y="108" width="24" height="24" fill="#3a2a1a" stroke="#111" stroke-width="1"/>
    <rect x="608" y="108" width="24" height="24" fill="url(#colHatch)"/>
    <rect x="858" y="108" width="24" height="24" fill="#3a2a1a" stroke="#111" stroke-width="1"/>
    <rect x="858" y="108" width="24" height="24" fill="url(#colHatch)"/>
    <rect x="1108" y="108" width="24" height="24" fill="#3a2a1a" stroke="#111" stroke-width="1"/>
    <rect x="1108" y="108" width="24" height="24" fill="url(#colHatch)"/>
    <rect x="1358" y="108" width="24" height="24" fill="#3a2a1a" stroke="#111" stroke-width="1"/>
    <rect x="1358" y="108" width="24" height="24" fill="url(#colHatch)"/>
    <rect x="1617" y="108" width="24" height="24" fill="#3a2a1a" stroke="#111" stroke-width="1"/>
    <rect x="1617" y="108" width="24" height="24" fill="url(#colHatch)"/>
    <rect x="108" y="408" width="24" height="24" fill="#3a2a1a" stroke="#111" stroke-width="1"/>
    <rect x="108" y="408" width="24" height="24" fill="url(#colHatch)"/>
    <rect x="358" y="408" width="24" height="24" fill="#3a2a1a" stroke="#111" stroke-width="1"/>
    <rect x="358" y="408" width="24" height="24" fill="url(#colHatch)"/>
    <rect x="608" y="408" width="24" height="24" fill="#3a2a1a" stroke="#111" stroke-width="1"/>
    <rect x="608" y="408" width="24" height="24" fill="url(#colHatch)"/>
    <rect x="858" y="408" width="24" height="24" fill="#3a2a1a" stroke="#111" stroke-width="1"/>
    <rect x="858" y="408" width="24" height="24" fill="url(#colHatch)"/>
    <rect x="1108" y="408" width="24" height="24" fill="#3a2a1a" stroke="#111" stroke-width="1"/>
    <rect x="1108" y="408" width="24" height="24" fill="url(#colHatch)"/>
    <rect x="1358" y="408" width="24" height="24" fill="#3a2a1a" stroke="#111" stroke-width="1"/>
    <rect x="1358" y="408" width="24" height="24" fill="url(#colHatch)"/>
    <rect x="1617" y="408" width="24" height="24" fill="#3a2a1a" stroke="#111" stroke-width="1"/>
    <rect x="1617" y="408" width="24" height="24" fill="url(#colHatch)"/>
    <rect x="108" y="688" width="24" height="24" fill="#3a2a1a" stroke="#111" stroke-width="1"/>
    <rect x="108" y="688" width="24" height="24" fill="url(#colHatch)"/>
    <rect x="358" y="688" width="24" height="24" fill="#3a2a1a" stroke="#111" stroke-width="1"/>
    <rect x="358" y="688" width="24" height="24" fill="url(#colHatch)"/>
    <rect x="608" y="688" width="24" height="24" fill="#3a2a1a" stroke="#111" stroke-width="1"/>
    <rect x="608" y="688" width="24" height="24" fill="url(#colHatch)"/>
    <rect x="858" y="688" width="24" height="24" fill="#3a2a1a" stroke="#111" stroke-width="1"/>
    <rect x="858" y="688" width="24" height="24" fill="url(#colHatch)"/>
    <rect x="1108" y="688" width="24" height="24" fill="#3a2a1a" stroke="#111" stroke-width="1"/>
    <rect x="1108" y="688" width="24" height="24" fill="url(#colHatch)"/>
    <rect x="1358" y="688" width="24" height="24" fill="#3a2a1a" stroke="#111" stroke-width="1"/>
    <rect x="1358" y="688" width="24" height="24" fill="url(#colHatch)"/>
    <rect x="1617" y="688" width="24" height="24" fill="#3a2a1a" stroke="#111" stroke-width="1"/>
    <rect x="1617" y="688" width="24" height="24" fill="url(#colHatch)"/>
    <rect x="108" y="928" width="24" height="24" fill="#3a2a1a" stroke="#111" stroke-width="1"/>
    <rect x="108" y="928" width="24" height="24" fill="url(#colHatch)"/>
    <rect x="358" y="928" width="24" height="24" fill="#3a2a1a" stroke="#111" stroke-width="1"/>
    <rect x="358" y="928" width="24" height="24" fill="url(#colHatch)"/>
    <rect x="608" y="928" width="24" height="24" fill="#3a2a1a" stroke="#111" stroke-width="1"/>
    <rect x="608" y="928" width="24" height="24" fill="url(#colHatch)"/>
    <rect x="858" y="928" width="24" height="24" fill="#3a2a1a" stroke="#111" stroke-width="1"/>
    <rect x="858" y="928" width="24" height="24" fill="url(#colHatch)"/>
    <rect x="1108" y="928" width="24" height="24" fill="#3a2a1a" stroke="#111" stroke-width="1"/>
    <rect x="1108" y="928" width="24" height="24" fill="url(#colHatch)"/>
    <rect x="1358" y="928" width="24" height="24" fill="#3a2a1a" stroke="#111" stroke-width="1"/>
    <rect x="1358" y="928" width="24" height="24" fill="url(#colHatch)"/>
    <rect x="1617" y="928" width="24" height="24" fill="#3a2a1a" stroke="#111" stroke-width="1"/>
    <rect x="1617" y="928" width="24" height="24" fill="url(#colHatch)"/>
  </g>

  <!-- ===== DOWNPIPES & GUTTERS ===== -->
  <!-- Gutters along outer walls (thick blue lines) -->
  <g stroke="#2060c0" stroke-width="3" fill="none" opacity="0.7">
    <!-- North gutter -->
    <line x1="120" y1="115" x2="1620" y2="115"/>
    <!-- South gutter -->
    <line x1="120" y1="935" x2="1620" y2="935"/>
    <!-- West gutter -->
    <line x1="115" y1="120" x2="115" y2="940"/>
    <!-- East gutter -->
    <line x1="1635" y1="120" x2="1635" y2="940"/>
  </g>
  <!-- Downpipe symbols (circles) + labels -->
  <g fill="#2060c0" stroke="#004090" stroke-width="1.2" font-family="Arial" font-size="9" opacity="0.9">
    <!-- RWP-1: NW corner -->
    <circle cx="135" cy="135" r="8"/>
    <text x="148" y="139" fill="#004090">RWP-1</text>
    <!-- RWP-2: NE corner -->
    <circle cx="1617" cy="135" r="8"/>
    <text x="1570" y="139" fill="#004090">RWP-2</text>
    <!-- RWP-3: Terrace (already placed above) -->
    <!-- RWP-4: SW corner -->
    <circle cx="135" cy="927" r="8"/>
    <text x="148" y="931" fill="#004090">RWP-4</text>
    <!-- RWP-5: SE corner -->
    <circle cx="1617" cy="927" r="8"/>
    <text x="1570" y="931" fill="#004090">RWP-5</text>
    <!-- RWP-6: Mid north -->
    <circle cx="870" cy="115" r="7"/>
    <text x="880" y="118" fill="#004090">RWP-6</text>
    <!-- RWP-7: Mid south -->
    <circle cx="870" cy="935" r="7"/>
    <text x="880" y="939" fill="#004090">RWP-7</text>
  </g>

  <!-- ===== RAFTER / PURLIN LINES ===== -->
  <!-- Section 1: A1-D2 rafters -->
  <g stroke="#b09060" stroke-width="1" opacity="0.5">
    <line x1="120" y1="150" x2="870" y2="150"/>
    <line x1="120" y1="180" x2="870" y2="180"/>
    <line x1="120" y1="210" x2="870" y2="210"/>
    <line x1="120" y1="240" x2="870" y2="240"/>
    <line x1="120" y1="270" x2="870" y2="270"/>
    <line x1="120" y1="300" x2="870" y2="300"/>
    <line x1="120" y1="330" x2="870" y2="330"/>
    <line x1="120" y1="360" x2="870" y2="360"/>
    <line x1="120" y1="390" x2="870" y2="390"/>
  </g>
  <!-- Section 2: D1-G2 rafters -->
  <g stroke="#b09060" stroke-width="1" opacity="0.5">
    <line x1="870" y1="150" x2="1620" y2="150"/>
    <line x1="870" y1="180" x2="1620" y2="180"/>
    <line x1="870" y1="210" x2="1620" y2="210"/>
    <line x1="870" y1="240" x2="1620" y2="240"/>
    <line x1="870" y1="300" x2="1620" y2="300"/>
    <line x1="870" y1="330" x2="1620" y2="330"/>
    <line x1="870" y1="360" x2="1620" y2="360"/>
    <line x1="870" y1="390" x2="1620" y2="390"/>
  </g>
  <!-- Section 5 rafters -->
  <g stroke="#b09060" stroke-width="1" opacity="0.5">
    <line x1="120" y1="730" x2="870" y2="730"/>
    <line x1="120" y1="760" x2="870" y2="760"/>
    <line x1="120" y1="790" x2="870" y2="790"/>
    <line x1="120" y1="820" x2="870" y2="820"/>
    <line x1="120" y1="850" x2="870" y2="850"/>
    <line x1="120" y1="880" x2="870" y2="880"/>
    <line x1="120" y1="910" x2="870" y2="910"/>
  </g>
  <!-- Section 6 rafters -->
  <g stroke="#b09060" stroke-width="1" opacity="0.5">
    <line x1="870" y1="730" x2="1620" y2="730"/>
    <line x1="870" y1="760" x2="1620" y2="760"/>
    <line x1="870" y1="790" x2="1620" y2="790"/>
    <line x1="870" y1="850" x2="1620" y2="850"/>
    <line x1="870" y1="880" x2="1620" y2="880"/>
    <line x1="870" y1="910" x2="1620" y2="910"/>
  </g>

  <!-- ===== SOLAR PANELS (terrace) ===== -->
  <g fill="#1a3060" stroke="#0a2040" stroke-width="1" opacity="0.8">
    <rect x="890" y="440" width="80" height="50"/>
    <rect x="985" y="440" width="80" height="50"/>
    <rect x="1080" y="440" width="80" height="50"/>
    <rect x="890" y="505" width="80" height="50"/>
    <rect x="985" y="505" width="80" height="50"/>
    <rect x="1080" y="505" width="80" height="50"/>
  </g>
  <text x="990" y="595" font-family="Arial" font-size="9" fill="#1a3060" text-anchor="middle">SOLAR PV PANELS (6 No.)</text>

  <!-- ===== OVERHEAD TANK ===== -->
  <rect x="1430" y="450" width="120" height="90" fill="#708090" stroke="#405060" stroke-width="2" rx="4"/>
  <text x="1490" y="490" font-family="Arial" font-size="10" fill="white" text-anchor="middle" font-weight="bold">OHWT</text>
  <text x="1490" y="503" font-family="Arial" font-size="9" fill="#d0e0f0" text-anchor="middle">5000L</text>
  <text x="1490" y="515" font-family="Arial" font-size="8" fill="#d0e0f0" text-anchor="middle">Sintex 2-layer</text>

  <!-- ===== STAIRCASE HEAD ROOM ===== -->
  <rect x="1129" y="429" width="241" height="200" fill="#c0b8a8" stroke="#7a6a50" stroke-width="2"/>
  <text x="1249" y="510" font-family="Arial" font-size="11" fill="#4a3a20" text-anchor="middle" font-weight="bold">STAIR</text>
  <text x="1249" y="525" font-family="Arial" font-size="11" fill="#4a3a20" text-anchor="middle" font-weight="bold">HEAD RM.</text>
  <text x="1249" y="540" font-family="Arial" font-size="9" fill="#6a5a40" text-anchor="middle">+8200mm</text>

  <!-- ===== VALLEY LINES ===== -->
  <g stroke="#3a2a10" stroke-width="2" stroke-dasharray="8,4">
    <!-- Valley at row 2/3 transition (flat meets pitched) -->
    <line x1="120" y1="420" x2="870" y2="420"/>
    <line x1="870" y1="420" x2="1620" y2="420"/>
    <!-- Valley at row 3/4 transition -->
    <line x1="120" y1="700" x2="870" y2="700"/>
    <line x1="870" y1="700" x2="1620" y2="700"/>
  </g>
  <!-- Valley labels -->
  <text x="490" y="417" font-family="Arial" font-size="8" fill="#5a3a10" text-anchor="middle">VALLEY LINE</text>
  <text x="490" y="697" font-family="Arial" font-size="8" fill="#5a3a10" text-anchor="middle">VALLEY LINE</text>

  <!-- ===== SLOPE DIRECTION INDICATORS ===== -->
  <g fill="#6a4020" font-family="Arial" font-size="9" font-weight="bold">
    <!-- Section 1 slope -->
    <text x="200" y="165">▲</text><text x="208" y="165">SLOPE 1:3</text>
    <!-- Section 5 slope -->
    <text x="200" y="745">▲</text><text x="208" y="745">SLOPE 1:3</text>
  </g>

  <!-- ===== DIMENSION LINES ===== -->
  <g stroke="#555" stroke-width="1" fill="none">
    <line x1="120" y1="75" x2="1620" y2="75"/>
    <line x1="120" y1="70" x2="120" y2="80"/>
    <line x1="370" y1="70" x2="370" y2="80"/>
    <line x1="620" y1="70" x2="620" y2="80"/>
    <line x1="870" y1="70" x2="870" y2="80"/>
    <line x1="1120" y1="70" x2="1120" y2="80"/>
    <line x1="1370" y1="70" x2="1370" y2="80"/>
    <line x1="1620" y1="70" x2="1620" y2="80"/>
  </g>
  <g font-family="Arial" font-size="9" fill="#333" text-anchor="middle">
    <text x="245" y="70">2500</text>
    <text x="495" y="70">2500</text>
    <text x="745" y="70">2500</text>
    <text x="995" y="70">2500</text>
    <text x="1245" y="70">2500</text>
    <text x="1495" y="70">2500</text>
    <text x="870" y="62" font-size="10" font-weight="bold" fill="#000">TOTAL WIDTH: 15000mm</text>
  </g>
  <g stroke="#555" stroke-width="1" fill="none">
    <line x1="1705" y1="120" x2="1705" y2="940"/>
    <line x1="1700" y1="120" x2="1710" y2="120"/>
    <line x1="1700" y1="420" x2="1710" y2="420"/>
    <line x1="1700" y1="700" x2="1710" y2="700"/>
    <line x1="1700" y1="940" x2="1710" y2="940"/>
  </g>
  <g font-family="Arial" font-size="9" fill="#333" text-anchor="middle">
    <text x="1720" y="275" transform="rotate(90,1720,275)">3000</text>
    <text x="1720" y="565" transform="rotate(90,1720,565)">2800</text>
    <text x="1720" y="825" transform="rotate(90,1720,825)">2300</text>
  </g>

  <!-- ===== LEGEND ===== -->
  <rect x="68" y="760" width="160" height="155" fill="white" stroke="#2a2a3a" stroke-width="1.2" rx="3" opacity="0.92"/>
  <text x="148" y="778" font-family="Arial" font-size="10" fill="#1a3560" text-anchor="middle" font-weight="bold">LEGEND</text>
  <!-- Hip Roof -->
  <rect x="78" y="785" width="25" height="12" fill="url(#roofTile)"/>
  <text x="108" y="795" font-family="Arial" font-size="9" fill="#333">Hip/Gable Roof</text>
  <!-- Flat Slab -->
  <rect x="78" y="803" width="25" height="12" fill="url(#flatSlab)"/>
  <text x="108" y="813" font-family="Arial" font-size="9" fill="#333">Flat RCC Slab</text>
  <!-- Terrace -->
  <rect x="78" y="821" width="25" height="12" fill="url(#terraceHatch)"/>
  <text x="108" y="831" font-family="Arial" font-size="9" fill="#333">Open Terrace</text>
  <!-- Ridge -->
  <line x1="78" y1="845" x2="103" y2="845" stroke="#5a3a10" stroke-width="3"/>
  <text x="108" y="849" font-family="Arial" font-size="9" fill="#333">Ridge Line</text>
  <!-- Valley -->
  <line x1="78" y1="862" x2="103" y2="862" stroke="#3a2a10" stroke-width="2" stroke-dasharray="5,3"/>
  <text x="108" y="866" font-family="Arial" font-size="9" fill="#333">Valley / Eave Line</text>
  <!-- Gutter -->
  <line x1="78" y1="879" x2="103" y2="879" stroke="#2060c0" stroke-width="3"/>
  <text x="108" y="883" font-family="Arial" font-size="9" fill="#333">Eave Gutter</text>
  <!-- Downpipe -->
  <circle cx="88" cy="896" r="5" fill="#2060c0"/>
  <text x="108" y="900" font-family="Arial" font-size="9" fill="#333">Rainwater Pipe (RWP)</text>

  <!-- ===== ROOF SPECS NOTE ===== -->
  <rect x="68" y="920" width="340" height="65" fill="#f0f0e0" stroke="#8a7a50" stroke-width="1" rx="2" opacity="0.9"/>
  <text x="80" y="936" font-family="Arial" font-size="9" fill="#3a3020" font-weight="bold">ROOF SPECIFICATIONS:</text>
  <text x="80" y="950" font-family="Arial" font-size="8" fill="#555">• Pitched roof: Clay tiles on M.S. rafters @ 600mm c/c</text>
  <text x="80" y="962" font-family="Arial" font-size="8" fill="#555">• Flat slab: 125mm RCC M25/Fe500, waterproof treatment</text>
  <text x="80" y="974" font-family="Arial" font-size="8" fill="#555">• Slope: 1:3 (18.4°) | Parapet: 900mm above FFL</text>

  <!-- ===== GRID LABELS ===== -->
  <g font-family="Arial" font-size="12" font-weight="bold" fill="#1a3560" text-anchor="middle">
    <text x="120" y="95">A</text><text x="370" y="95">B</text>
    <text x="620" y="95">C</text><text x="870" y="95">D</text>
    <text x="1120" y="95">E</text><text x="1370" y="95">F</text>
    <text x="1620" y="95">G</text>
  </g>
  <g font-family="Arial" font-size="12" font-weight="bold" fill="#1a3560" text-anchor="middle">
    <text x="92" y="124">①</text>
    <text x="92" y="424">②</text>
    <text x="92" y="704">③</text>
    <text x="92" y="944">④</text>
  </g>

  <!-- ===== NORTH ARROW ===== -->
  <g transform="translate(1680,180)">
    <circle cx="0" cy="0" r="22" fill="none" stroke="#333" stroke-width="1.5"/>
    <polygon points="0,-20 -8,10 0,4 8,10" fill="#1a3560"/>
    <polygon points="0,-20 -8,10 0,4 8,10" fill="#aaa" transform="rotate(180)"/>
    <text x="0" y="-26" font-family="Arial" font-size="11" fill="#1a3560" text-anchor="middle" font-weight="bold">N</text>
  </g>

  <!-- ===== SCALE BAR ===== -->
  <g transform="translate(1560,210)">
    <rect x="0" y="0" width="80" height="8" fill="#1a3560"/>
    <rect x="80" y="0" width="80" height="8" fill="white" stroke="#333" stroke-width="1"/>
    <text x="0" y="20" font-family="Arial" font-size="9" fill="#333">0</text>
    <text x="72" y="20" font-family="Arial" font-size="9" fill="#333">2.5m</text>
    <text x="150" y="20" font-family="Arial" font-size="9" fill="#333">5m</text>
    <text x="40" y="-4" font-family="Arial" font-size="9" fill="#333" text-anchor="middle">SCALE 1:100</text>
  </g>

  <!-- ===== TITLE BLOCK ===== -->
  <rect x="60" y="1030" width="1680" height="50" fill="#3a2a10"/>
  <rect x="60" y="1025" width="1680" height="5" fill="#e0a030"/>
  <text x="900" y="1058" font-family="Arial" font-size="16" fill="white" font-weight="bold" text-anchor="middle">9 BHK HOUSE — ROOF PLAN</text>
  <text x="900" y="1072" font-family="Arial" font-size="10" fill="#f0d890" text-anchor="middle">Drawing No: 9BHK-RF-004 | Scale: 1:100 | Date: 2026 | Hip + Gable + Flat Roof Combination</text>
  <text x="80" y="1058" font-family="Arial" font-size="11" fill="#e0c060" font-weight="bold">9 BHK RESIDENCE</text>
  <text x="80" y="1072" font-family="Arial" font-size="9" fill="#f0d890">ROOF LEVEL: +6600mm FFL</text>
  <text x="1720" y="1058" font-family="Arial" font-size="11" fill="#e0c060" font-weight="bold" text-anchor="end">9BHK-RF-004</text>
  <text x="1720" y="1072" font-family="Arial" font-size="9" fill="#f0d890" text-anchor="end">Sheet 4 of 6</text>
</svg>
