<?xml version="1.0" encoding="UTF-8"?>
<svg xmlns="http://www.w3.org/2000/svg" viewBox="0 0 1400 1050" width="1400" height="1050"
     style="font-family:'Arial',sans-serif;background:#fafaf5;">

  <defs>
    <!-- Fine dot grid background -->
    <pattern id="dot-grid" width="20" height="20" patternUnits="userSpaceOnUse">
      <circle cx="10" cy="10" r="0.6" fill="#b8b8a0"/>
    </pattern>
    <!-- Concrete hatch (diagonal lines close together) -->
    <pattern id="concrete" width="5" height="5" patternUnits="userSpaceOnUse" patternTransform="rotate(45)">
      <line x1="0" y1="0" x2="0" y2="5" stroke="#888" stroke-width="0.8"/>
    </pattern>
    <!-- Reinforced concrete (diagonal + dots) -->
    <pattern id="rc-hatch" width="8" height="8" patternUnits="userSpaceOnUse">
      <line x1="0" y1="0" x2="8" y2="8" stroke="#777" stroke-width="0.7"/>
      <line x1="0" y1="8" x2="8" y2="0" stroke="#777" stroke-width="0.7"/>
      <circle cx="4" cy="4" r="0.8" fill="#555"/>
    </pattern>
    <!-- Gravel/hardcore fill -->
    <pattern id="gravel" width="10" height="6" patternUnits="userSpaceOnUse">
      <ellipse cx="2" cy="3" rx="1.5" ry="1" fill="#bbb" stroke="#888" stroke-width="0.4"/>
      <ellipse cx="7" cy="1.5" rx="1.2" ry="0.9" fill="#bbb" stroke="#888" stroke-width="0.4"/>
      <ellipse cx="5" cy="5" rx="1.8" ry="0.9" fill="#aaa" stroke="#888" stroke-width="0.4"/>
    </pattern>
    <!-- Earth/soil hatch -->
    <pattern id="earth" width="12" height="8" patternUnits="userSpaceOnUse">
      <line x1="0" y1="4" x2="12" y2="4" stroke="#a0885a" stroke-width="0.7"/>
      <circle cx="2" cy="6" r="0.7" fill="#a0885a"/>
      <circle cx="6" cy="2" r="0.7" fill="#a0885a"/>
      <circle cx="10" cy="6.5" r="0.7" fill="#a0885a"/>
    </pattern>
    <!-- Steel reinforcement bar pattern -->
    <pattern id="steel-bar" width="20" height="4" patternUnits="userSpaceOnUse">
      <rect width="20" height="4" fill="#d4c090"/>
      <line x1="0" y1="2" x2="20" y2="2" stroke="#b8960a" stroke-width="2.5"/>
    </pattern>
    <!-- Brick hatch -->
    <pattern id="brick" width="20" height="10" patternUnits="userSpaceOnUse">
      <rect width="20" height="10" fill="#f0e0d0" stroke="#c08060" stroke-width="0.5"/>
      <rect x="0" y="0" width="10" height="5" fill="none" stroke="#c08060" stroke-width="0.8"/>
      <rect x="10" y="5" width="10" height="5" fill="none" stroke="#c08060" stroke-width="0.8"/>
    </pattern>
    <!-- Dimension arrow -->
    <marker id="dim-arr" markerWidth="10" markerHeight="8" refX="8" refY="3" orient="auto">
      <polygon points="0,0 8,3 0,6" fill="#1a252f"/>
    </marker>
    <marker id="dim-arr-l" markerWidth="10" markerHeight="8" refX="0" refY="3" orient="auto">
      <polygon points="8,0 0,3 8,6" fill="#1a252f"/>
    </marker>
    <!-- Section symbol -->
    <marker id="section-arr" markerWidth="8" markerHeight="8" refX="4" refY="4" orient="auto">
      <circle cx="4" cy="4" r="3" fill="#cc0000"/>
    </marker>
    <!-- Drop shadow filter -->
    <filter id="shadow" x="-5%" y="-5%" width="115%" height="115%">
      <feDropShadow dx="2" dy="2" stdDeviation="3" flood-opacity="0.15"/>
    </filter>
  </defs>

  <!-- ── BACKGROUND ── -->
  <rect width="1400" height="1050" fill="#fafaf5"/>
  <rect x="60" y="60" width="1280" height="920" fill="url(#dot-grid)"/>

  <!-- ══════════════════════════════════════════════════════
       TITLE BLOCK (professional bordered)
  ══════════════════════════════════════════════════════ -->
  <rect x="60" y="950" width="1280" height="80" fill="#1a252f"/>
  <rect x="62" y="952" width="1276" height="76" fill="#1e2f3f"/>
  <!-- title subdivisions -->
  <line x1="420" y1="950" x2="420" y2="1030" stroke="#3a5070" stroke-width="1"/>
  <line x1="780" y1="950" x2="780" y2="1030" stroke="#3a5070" stroke-width="1"/>
  <line x1="1060" y1="950" x2="1060" y2="1030" stroke="#3a5070" stroke-width="1"/>
  <line x1="1200" y1="950" x2="1200" y2="1030" stroke="#3a5070" stroke-width="1"/>

  <text x="240" y="975" font-size="9" font-weight="bold" fill="#7ab0d0" text-anchor="middle" letter-spacing="1">PROJECT</text>
  <text x="240" y="990" font-size="13" font-weight="bold" fill="white" text-anchor="middle">HOUSE BUILDING PROJECT</text>
  <text x="240" y="1008" font-size="9" fill="#90a8b8" text-anchor="middle">Residential — 2 Storey Detached</text>
  <text x="240" y="1022" font-size="8" fill="#6888a0" text-anchor="middle">Client: Private Development Ltd.</text>

  <text x="600" y="975" font-size="9" font-weight="bold" fill="#7ab0d0" text-anchor="middle" letter-spacing="1">DRAWING TITLE</text>
  <text x="600" y="995" font-size="16" font-weight="bold" fill="white" text-anchor="middle" letter-spacing="2">FOUNDATION PLAN</text>
  <text x="600" y="1012" font-size="9" fill="#90a8b8" text-anchor="middle">Structural Isolated Footings + Strip Foundation</text>
  <text x="600" y="1025" font-size="8" fill="#6888a0" text-anchor="middle">Drawing No: ST-FP-001 | Revision: B</text>

  <text x="920" y="975" font-size="8" fill="#7ab0d0" text-anchor="middle">SCALE &amp; UNITS</text>
  <text x="920" y="993" font-size="12" font-weight="bold" fill="white" text-anchor="middle">1 : 100</text>
  <text x="920" y="1007" font-size="8" fill="#90a8b8" text-anchor="middle">All dimensions in millimetres</text>
  <text x="920" y="1022" font-size="8" fill="#6888a0" text-anchor="middle">Concrete: C25/30 | Steel: B500B</text>

  <text x="1130" y="975" font-size="8" fill="#7ab0d0" text-anchor="middle">DATE</text>
  <text x="1130" y="992" font-size="11" font-weight="bold" fill="white" text-anchor="middle">2026-09-08</text>
  <text x="1130" y="1007" font-size="8" fill="#90a8b8" text-anchor="middle">Drawn: CAD/AI</text>
  <text x="1130" y="1020" font-size="8" fill="#6888a0" text-anchor="middle">Checked: —</text>

  <text x="1320" y="975" font-size="8" fill="#7ab0d0" text-anchor="middle">SHEET</text>
  <text x="1320" y="996" font-size="18" font-weight="bold" fill="white" text-anchor="middle">1/3</text>
  <text x="1320" y="1013" font-size="8" fill="#90a8b8" text-anchor="middle">FP-001</text>

  <!-- ── DRAWING BORDER ── -->
  <rect x="60" y="60" width="1280" height="890" fill="none" stroke="#1a252f" stroke-width="3" filter="url(#shadow)"/>
  <rect x="64" y="64" width="1272" height="882" fill="none" stroke="#3a5070" stroke-width="0.8"/>

  <!-- ══════════════════════════════════════════════
       STRUCTURAL GRID
       Cols: A=180, B=460, C=740, D=1020, (E=1220 edge)
       Rows: 1=150, 2=450, 3=730, (4=880 edge)
  ══════════════════════════════════════════════ -->

  <!-- Grid lines (long-short dash, blue-grey) -->
  <g stroke="#4a7aaa" stroke-width="0.6" stroke-dasharray="18,5,3,5" opacity="0.7">
    <line x1="180" y1="100" x2="180" y2="920"/>
    <line x1="460" y1="100" x2="460" y2="920"/>
    <line x1="740" y1="100" x2="740" y2="920"/>
    <line x1="1020" y1="100" x2="1020" y2="920"/>
    <line x1="100" y1="150" x2="1280" y2="150"/>
    <line x1="100" y1="450" x2="1280" y2="450"/>
    <line x1="100" y1="730" x2="1280" y2="730"/>
  </g>

  <!-- Grid bubble circles — columns -->
  <g fill="white" stroke="#1a252f" stroke-width="1.8">
    <circle cx="180" cy="108" r="18"/>
    <circle cx="460" cy="108" r="18"/>
    <circle cx="740" cy="108" r="18"/>
    <circle cx="1020" cy="108" r="18"/>
  </g>
  <g font-size="14" font-weight="bold" fill="#1a252f" text-anchor="middle">
    <text x="180" y="113">A</text>
    <text x="460" y="113">B</text>
    <text x="740" y="113">C</text>
    <text x="1020" y="113">D</text>
  </g>

  <!-- Grid bubble circles — rows -->
  <g fill="white" stroke="#1a252f" stroke-width="1.8">
    <circle cx="108" cy="150" r="18"/>
    <circle cx="108" cy="450" r="18"/>
    <circle cx="108" cy="730" r="18"/>
  </g>
  <g font-size="14" font-weight="bold" fill="#1a252f" text-anchor="middle">
    <text x="108" y="155">1</text>
    <text x="108" y="455">2</text>
    <text x="108" y="735">3</text>
  </g>

  <!-- ══════════════════════════════════════════
       STRIP FOUNDATION WALLS (outer perimeter)
       300mm thick walls shown with RC hatch
  ══════════════════════════════════════════ -->

  <!-- Outer boundary solid fill (cream/off-white interior) -->
  <rect x="162" y="132" width="876" height="616" fill="#f0eee4" stroke="none"/>

  <!-- Top wall strip -->
  <rect x="162" y="132" width="876" height="36" fill="url(#rc-hatch)" stroke="#1a252f" stroke-width="2.5"/>
  <!-- Bottom wall strip -->
  <rect x="162" y="712" width="876" height="36" fill="url(#rc-hatch)" stroke="#1a252f" stroke-width="2.5"/>
  <!-- Left wall strip -->
  <rect x="162" y="132" width="36" height="616" fill="url(#rc-hatch)" stroke="#1a252f" stroke-width="2.5"/>
  <!-- Right wall strip -->
  <rect x="1002" y="132" width="36" height="616" fill="url(#rc-hatch)" stroke="#1a252f" stroke-width="2.5"/>

  <!-- Internal beam lines / partition walls -->
  <!-- B col partial wall -->
  <rect x="444" y="168" width="32" height="280" fill="url(#concrete)" stroke="#1a252f" stroke-width="1.8"/>
  <!-- C col partial wall -->
  <rect x="724" y="168" width="32" height="280" fill="url(#concrete)" stroke="#1a252f" stroke-width="1.8"/>
  <!-- Row 2 partial horizontal -->
  <rect x="198" y="434" width="246" height="32" fill="url(#concrete)" stroke="#1a252f" stroke-width="1.8"/>
  <rect x="756" y="434" width="246" height="32" fill="url(#concrete)" stroke="#1a252f" stroke-width="1.8"/>

  <!-- ══════════════════════════════════════════
       ISOLATED PAD FOOTINGS — 12 positions
       Each 80×80 px, heavy RC hatch + border
  ══════════════════════════════════════════ -->
  <!-- Helper macro: footing at (cx,cy) size 80×80 -->
  <!-- A1 (180,150) -->
  <rect x="140" y="110" width="80" height="80" fill="#e8e0d0" stroke="#8B0000" stroke-width="3"/>
  <rect x="140" y="110" width="80" height="80" fill="url(#rc-hatch)" opacity="0.7"/>
  <line x1="180" y1="110" x2="180" y2="190" stroke="#8B0000" stroke-width="1" stroke-dasharray="4,3"/>
  <line x1="140" y1="150" x2="220" y2="150" stroke="#8B0000" stroke-width="1" stroke-dasharray="4,3"/>
  <!-- Centre dot -->
  <circle cx="180" cy="150" r="4" fill="#cc0000"/>
  <!-- Label -->
  <text x="180" y="209" font-size="8.5" font-weight="bold" fill="#8B0000" text-anchor="middle">F-A1</text>
  <text x="180" y="219" font-size="7.5" fill="#666" text-anchor="middle">600×600×300</text>

  <!-- B1 (460,150) -->
  <rect x="420" y="110" width="80" height="80" fill="#e8e0d0" stroke="#8B0000" stroke-width="3"/>
  <rect x="420" y="110" width="80" height="80" fill="url(#rc-hatch)" opacity="0.7"/>
  <line x1="460" y1="110" x2="460" y2="190" stroke="#8B0000" stroke-width="1" stroke-dasharray="4,3"/>
  <line x1="420" y1="150" x2="500" y2="150" stroke="#8B0000" stroke-width="1" stroke-dasharray="4,3"/>
  <circle cx="460" cy="150" r="4" fill="#cc0000"/>
  <text x="460" y="209" font-size="8.5" font-weight="bold" fill="#8B0000" text-anchor="middle">F-B1</text>
  <text x="460" y="219" font-size="7.5" fill="#666" text-anchor="middle">600×600×300</text>

  <!-- C1 (740,150) -->
  <rect x="700" y="110" width="80" height="80" fill="#e8e0d0" stroke="#8B0000" stroke-width="3"/>
  <rect x="700" y="110" width="80" height="80" fill="url(#rc-hatch)" opacity="0.7"/>
  <line x1="740" y1="110" x2="740" y2="190" stroke="#8B0000" stroke-width="1" stroke-dasharray="4,3"/>
  <line x1="700" y1="150" x2="780" y2="150" stroke="#8B0000" stroke-width="1" stroke-dasharray="4,3"/>
  <circle cx="740" cy="150" r="4" fill="#cc0000"/>
  <text x="740" y="209" font-size="8.5" font-weight="bold" fill="#8B0000" text-anchor="middle">F-C1</text>
  <text x="740" y="219" font-size="7.5" fill="#666" text-anchor="middle">600×600×300</text>

  <!-- D1 (1020,150) -->
  <rect x="980" y="110" width="80" height="80" fill="#e8e0d0" stroke="#8B0000" stroke-width="3"/>
  <rect x="980" y="110" width="80" height="80" fill="url(#rc-hatch)" opacity="0.7"/>
  <line x1="1020" y1="110" x2="1020" y2="190" stroke="#8B0000" stroke-width="1" stroke-dasharray="4,3"/>
  <line x1="980" y1="150" x2="1060" y2="150" stroke="#8B0000" stroke-width="1" stroke-dasharray="4,3"/>
  <circle cx="1020" cy="150" r="4" fill="#cc0000"/>
  <text x="1020" y="209" font-size="8.5" font-weight="bold" fill="#8B0000" text-anchor="middle">F-D1</text>
  <text x="1020" y="219" font-size="7.5" fill="#666" text-anchor="middle">600×600×300</text>

  <!-- A2 (180,450) -->
  <rect x="140" y="410" width="80" height="80" fill="#e8e0d0" stroke="#8B0000" stroke-width="3"/>
  <rect x="140" y="410" width="80" height="80" fill="url(#rc-hatch)" opacity="0.7"/>
  <circle cx="180" cy="450" r="4" fill="#cc0000"/>
  <text x="124" y="455" font-size="8.5" font-weight="bold" fill="#8B0000" text-anchor="end">F-A2</text>

  <!-- B2 (460,450) -->
  <rect x="420" y="410" width="80" height="80" fill="#e8e0d0" stroke="#8B0000" stroke-width="3"/>
  <rect x="420" y="410" width="80" height="80" fill="url(#rc-hatch)" opacity="0.7"/>
  <circle cx="460" cy="450" r="4" fill="#cc0000"/>
  <text x="460" y="508" font-size="8.5" font-weight="bold" fill="#8B0000" text-anchor="middle">F-B2</text>

  <!-- C2 (740,450) -->
  <rect x="700" y="410" width="80" height="80" fill="#e8e0d0" stroke="#8B0000" stroke-width="3"/>
  <rect x="700" y="410" width="80" height="80" fill="url(#rc-hatch)" opacity="0.7"/>
  <circle cx="740" cy="450" r="4" fill="#cc0000"/>
  <text x="740" y="508" font-size="8.5" font-weight="bold" fill="#8B0000" text-anchor="middle">F-C2</text>

  <!-- D2 (1020,450) -->
  <rect x="980" y="410" width="80" height="80" fill="#e8e0d0" stroke="#8B0000" stroke-width="3"/>
  <rect x="980" y="410" width="80" height="80" fill="url(#rc-hatch)" opacity="0.7"/>
  <circle cx="1020" cy="450" r="4" fill="#cc0000"/>
  <text x="1056" y="455" font-size="8.5" font-weight="bold" fill="#8B0000" text-anchor="start">F-D2</text>

  <!-- A3 (180,730) -->
  <rect x="140" y="690" width="80" height="80" fill="#e8e0d0" stroke="#8B0000" stroke-width="3"/>
  <rect x="140" y="690" width="80" height="80" fill="url(#rc-hatch)" opacity="0.7"/>
  <circle cx="180" cy="730" r="4" fill="#cc0000"/>
  <text x="180" y="783" font-size="8.5" font-weight="bold" fill="#8B0000" text-anchor="middle">F-A3</text>

  <!-- B3 (460,730) -->
  <rect x="420" y="690" width="80" height="80" fill="#e8e0d0" stroke="#8B0000" stroke-width="3"/>
  <rect x="420" y="690" width="80" height="80" fill="url(#rc-hatch)" opacity="0.7"/>
  <circle cx="460" cy="730" r="4" fill="#cc0000"/>
  <text x="460" y="783" font-size="8.5" font-weight="bold" fill="#8B0000" text-anchor="middle">F-B3</text>

  <!-- C3 (740,730) -->
  <rect x="700" y="690" width="80" height="80" fill="#e8e0d0" stroke="#8B0000" stroke-width="3"/>
  <rect x="700" y="690" width="80" height="80" fill="url(#rc-hatch)" opacity="0.7"/>
  <circle cx="740" cy="730" r="4" fill="#cc0000"/>
  <text x="740" y="783" font-size="8.5" font-weight="bold" fill="#8B0000" text-anchor="middle">F-C3</text>

  <!-- D3 (1020,730) -->
  <rect x="980" y="690" width="80" height="80" fill="#e8e0d0" stroke="#8B0000" stroke-width="3"/>
  <rect x="980" y="690" width="80" height="80" fill="url(#rc-hatch)" opacity="0.7"/>
  <circle cx="1020" cy="730" r="4" fill="#cc0000"/>
  <text x="1020" y="783" font-size="8.5" font-weight="bold" fill="#8B0000" text-anchor="middle">F-D3</text>

  <!-- ══════════════════════════════════════════
       TIE BEAMS (connecting footings)
  ══════════════════════════════════════════ -->
  <!-- Row 1 beams -->
  <rect x="220" y="143" width="200" height="14" fill="#c8b060" stroke="#8B6914" stroke-width="1.5"/>
  <rect x="500" y="143" width="200" height="14" fill="#c8b060" stroke="#8B6914" stroke-width="1.5"/>
  <rect x="780" y="143" width="200" height="14" fill="#c8b060" stroke="#8B6914" stroke-width="1.5"/>
  <!-- Row 2 beams -->
  <rect x="220" y="443" width="200" height="14" fill="#c8b060" stroke="#8B6914" stroke-width="1.5"/>
  <rect x="500" y="443" width="200" height="14" fill="#c8b060" stroke="#8B6914" stroke-width="1.5"/>
  <rect x="780" y="443" width="200" height="14" fill="#c8b060" stroke="#8B6914" stroke-width="1.5"/>
  <!-- Row 3 beams -->
  <rect x="220" y="723" width="200" height="14" fill="#c8b060" stroke="#8B6914" stroke-width="1.5"/>
  <rect x="500" y="723" width="200" height="14" fill="#c8b060" stroke="#8B6914" stroke-width="1.5"/>
  <rect x="780" y="723" width="200" height="14" fill="#c8b060" stroke="#8B6914" stroke-width="1.5"/>
  <!-- Col A beams -->
  <rect x="173" y="190" width="14" height="220" fill="#c8b060" stroke="#8B6914" stroke-width="1.5"/>
  <rect x="173" y="490" width="14" height="200" fill="#c8b060" stroke="#8B6914" stroke-width="1.5"/>
  <!-- Col B beams -->
  <rect x="453" y="190" width="14" height="220" fill="#c8b060" stroke="#8B6914" stroke-width="1.5"/>
  <rect x="453" y="490" width="14" height="200" fill="#c8b060" stroke="#8B6914" stroke-width="1.5"/>
  <!-- Col C beams -->
  <rect x="733" y="190" width="14" height="220" fill="#c8b060" stroke="#8B6914" stroke-width="1.5"/>
  <rect x="733" y="490" width="14" height="200" fill="#c8b060" stroke="#8B6914" stroke-width="1.5"/>
  <!-- Col D beams -->
  <rect x="1013" y="190" width="14" height="220" fill="#c8b060" stroke="#8B6914" stroke-width="1.5"/>
  <rect x="1013" y="490" width="14" height="200" fill="#c8b060" stroke="#8B6914" stroke-width="1.5"/>

  <!-- Beam labels -->
  <text x="320" y="140" font-size="8" fill="#8B6914" text-anchor="middle">TB1 230×300</text>
  <text x="600" y="140" font-size="8" fill="#8B6914" text-anchor="middle">TB2 230×300</text>
  <text x="880" y="140" font-size="8" fill="#8B6914" text-anchor="middle">TB3 230×300</text>

  <!-- ══════════════════════════════════════════
       SECTION CALLOUT LINES
  ══════════════════════════════════════════ -->
  <line x1="140" y1="580" x2="1060" y2="580" stroke="#cc0000" stroke-width="1.5" stroke-dasharray="14,5"/>
  <circle cx="140" cy="580" r="10" fill="#cc0000"/>
  <text x="140" y="584" font-size="8" fill="white" text-anchor="middle" font-weight="bold">A</text>
  <circle cx="1060" cy="580" r="10" fill="#cc0000"/>
  <text x="1060" y="584" font-size="8" fill="white" text-anchor="middle" font-weight="bold">A</text>
  <text x="600" y="574" font-size="9" fill="#cc0000" text-anchor="middle" font-weight="bold">SECTION A-A (see detail)</text>

  <!-- ══════════════════════════════════════════
       DIMENSION LINES
  ══════════════════════════════════════════ -->
  <!-- Top horizontal dims -->
  <g stroke="#1a252f" stroke-width="1" fill="none">
    <!-- Extension lines col A to B -->
    <line x1="180" y1="88" x2="180" y2="76"/>
    <line x1="460" y1="88" x2="460" y2="76"/>
    <line x1="740" y1="88" x2="740" y2="76"/>
    <line x1="1020" y1="88" x2="1020" y2="76"/>
    <!-- Dimension arrows -->
    <line x1="185" y1="80" x2="455" y2="80" marker-start="url(#dim-arr-l)" marker-end="url(#dim-arr)"/>
    <line x1="465" y1="80" x2="735" y2="80" marker-start="url(#dim-arr-l)" marker-end="url(#dim-arr)"/>
    <line x1="745" y1="80" x2="1015" y2="80" marker-start="url(#dim-arr-l)" marker-end="url(#dim-arr)"/>
    <!-- Overall span -->
    <line x1="180" y1="70" x2="1020" y2="70" marker-start="url(#dim-arr-l)" marker-end="url(#dim-arr)"/>
  </g>
  <text x="320" y="77" font-size="9.5" fill="#1a252f" text-anchor="middle" font-weight="bold">2800</text>
  <text x="600" y="77" font-size="9.5" fill="#1a252f" text-anchor="middle" font-weight="bold">2800</text>
  <text x="880" y="77" font-size="9.5" fill="#1a252f" text-anchor="middle" font-weight="bold">2800</text>
  <text x="600" y="67" font-size="10.5" fill="#cc0000" text-anchor="middle" font-weight="bold">8400</text>

  <!-- Right vertical dims -->
  <g stroke="#1a252f" stroke-width="1" fill="none">
    <line x1="1052" y1="150" x2="1065" y2="150"/>
    <line x1="1052" y1="450" x2="1065" y2="450"/>
    <line x1="1052" y1="730" x2="1065" y2="730"/>
    <line x1="1058" y1="155" x2="1058" y2="445" marker-start="url(#dim-arr-l)" marker-end="url(#dim-arr)"/>
    <line x1="1058" y1="455" x2="1058" y2="725" marker-start="url(#dim-arr-l)" marker-end="url(#dim-arr)"/>
    <line x1="1072" y1="150" x2="1072" y2="730" marker-start="url(#dim-arr-l)" marker-end="url(#dim-arr)"/>
  </g>
  <text x="1082" y="303" font-size="9.5" fill="#1a252f" text-anchor="start" font-weight="bold" transform="rotate(-90,1082,303)">3000</text>
  <text x="1082" y="591" font-size="9.5" fill="#1a252f" text-anchor="start" font-weight="bold" transform="rotate(-90,1082,591)">2800</text>
  <text x="1096" y="443" font-size="10.5" fill="#cc0000" text-anchor="start" font-weight="bold" transform="rotate(-90,1096,443)">5800</text>

  <!-- ══════════════════════════════════════════
       NORTH ARROW (professional style)
  ══════════════════════════════════════════ -->
  <g transform="translate(1190,780)">
    <circle cx="0" cy="0" r="38" fill="white" stroke="#1a252f" stroke-width="2"/>
    <circle cx="0" cy="0" r="35" fill="none" stroke="#1a252f" stroke-width="0.8"/>
    <!-- North arrow shaft -->
    <line x1="0" y1="-30" x2="0" y2="28" stroke="#1a252f" stroke-width="2"/>
    <!-- North half (filled black) -->
    <polygon points="0,-30 8,0 0,0 -8,0" fill="#1a252f"/>
    <!-- South half (white) -->
    <polygon points="0,30 8,0 0,0 -8,0" fill="white" stroke="#1a252f" stroke-width="1"/>
    <!-- N label -->
    <text x="0" y="-36" font-size="12" font-weight="bold" fill="#1a252f" text-anchor="middle">N</text>
    <!-- Compass ticks -->
    <line x1="0" y1="-32" x2="0" y2="-38" stroke="#1a252f" stroke-width="1.5"/>
    <line x1="32" y1="0" x2="38" y2="0" stroke="#1a252f" stroke-width="1"/>
    <line x1="-32" y1="0" x2="-38" y2="0" stroke="#1a252f" stroke-width="1"/>
    <text x="44" y="4" font-size="9" fill="#555" text-anchor="start">E</text>
    <text x="-44" y="4" font-size="9" fill="#555" text-anchor="end">W</text>
    <text x="0" y="50" font-size="9" fill="#555" text-anchor="middle">S</text>
  </g>

  <!-- ══════════════════════════════════════════
       LEGEND BOX
  ══════════════════════════════════════════ -->
  <rect x="1110" y="140" width="218" height="280" fill="white" stroke="#1a252f" stroke-width="1.5" rx="3" filter="url(#shadow)"/>
  <rect x="1110" y="140" width="218" height="22" fill="#1a252f" rx="3"/>
  <text x="1219" y="156" font-size="10" font-weight="bold" fill="white" text-anchor="middle" letter-spacing="1">LEGEND</text>

  <!-- Legend items -->
  <g font-size="9" fill="#1a252f">
    <!-- RC hatch -->
    <rect x="1120" y="172" width="22" height="14" fill="url(#rc-hatch)" stroke="#8B0000" stroke-width="1.5"/>
    <text x="1150" y="183">Isolated Pad Footing (RC)</text>

    <!-- Strip wall -->
    <rect x="1120" y="194" width="22" height="14" fill="url(#rc-hatch)" stroke="#1a252f" stroke-width="1.5"/>
    <text x="1150" y="205">Strip Foundation Wall</text>

    <!-- Tie beam -->
    <rect x="1120" y="216" width="22" height="14" fill="#c8b060" stroke="#8B6914" stroke-width="1.5"/>
    <text x="1150" y="227">Tie Beam (230×300)</text>

    <!-- Internal wall -->
    <rect x="1120" y="238" width="22" height="14" fill="url(#concrete)" stroke="#1a252f" stroke-width="1.5"/>
    <text x="1150" y="249">Internal Foundation Wall</text>

    <!-- Grid line -->
    <line x1="1120" y1="268" x2="1142" y2="268" stroke="#4a7aaa" stroke-width="1" stroke-dasharray="6,3,2,3"/>
    <text x="1150" y="272">Structural Grid Line</text>

    <!-- Footing centre -->
    <circle cx="1131" cy="290" r="4" fill="#cc0000"/>
    <text x="1150" y="294">Footing Centre Point</text>

    <!-- Section line -->
    <line x1="1120" y1="312" x2="1142" y2="312" stroke="#cc0000" stroke-width="1.5" stroke-dasharray="8,3"/>
    <circle cx="1120" cy="312" r="5" fill="#cc0000"/>
    <circle cx="1142" cy="312" r="5" fill="#cc0000"/>
    <text x="1150" y="316">Section Cut</text>

    <!-- Dimension -->
    <line x1="1120" y1="335" x2="1142" y2="335" stroke="#1a252f" stroke-width="1" marker-start="url(#dim-arr-l)" marker-end="url(#dim-arr)"/>
    <text x="1150" y="339">Dimension (mm)</text>

    <line x1="1110" y1="350" x2="1328" y2="350" stroke="#ccc" stroke-width="0.8"/>
    <text x="1119" y="363" font-size="8" fill="#555">Footing size: 600×600×300 (TYP)</text>
    <text x="1119" y="376" font-size="8" fill="#555">Cover: 50mm to all faces</text>
    <text x="1119" y="389" font-size="8" fill="#555">Rebar: T16@150 EW B.O.F</text>
    <text x="1119" y="402" font-size="8" fill="#555">Min. bearing: 150 kN/m²</text>
    <text x="1119" y="415" font-size="8" fill="#555">Min. depth: 1200mm BGL</text>
  </g>

  <!-- ══════════════════════════════════════════
       SECTION DETAIL (small inset A-A)
  ══════════════════════════════════════════ -->
  <rect x="130" y="820" width="310" height="110" fill="white" stroke="#1a252f" stroke-width="1.5" rx="3"/>
  <rect x="130" y="820" width="310" height="18" fill="#2c3e50"/>
  <text x="285" y="833" font-size="9" font-weight="bold" fill="white" text-anchor="middle">SECTION A-A — FOOTING DETAIL (NTS)</text>

  <!-- Mini section sketch -->
  <!-- Ground line -->
  <line x1="155" y1="875" x2="420" y2="875" stroke="#1a252f" stroke-width="1.5"/>
  <text x="430" y="878" font-size="8" fill="#555">GL</text>

  <!-- Column stub -->
  <rect x="265" y="843" width="30" height="32" fill="url(#rc-hatch)" stroke="#1a252f" stroke-width="1.5"/>
  <text x="280" y="860" font-size="7" fill="white" text-anchor="middle" font-weight="bold">COL</text>

  <!-- Footing -->
  <rect x="230" y="875" width="100" height="28" fill="url(#rc-hatch)" stroke="#8B0000" stroke-width="2"/>
  <!-- Rebar dots -->
  <circle cx="240" cy="895" r="2.5" fill="#cc0000"/>
  <circle cx="260" cy="895" r="2.5" fill="#cc0000"/>
  <circle cx="280" cy="895" r="2.5" fill="#cc0000"/>
  <circle cx="300" cy="895" r="2.5" fill="#cc0000"/>
  <circle cx="320" cy="895" r="2.5" fill="#cc0000"/>

  <!-- Blinding layer -->
  <rect x="225" y="903" width="110" height="8" fill="url(#gravel)" stroke="#999" stroke-width="1"/>
  <!-- Earth below -->
  <rect x="155" y="875" width="310" height="50" fill="url(#earth)" opacity="0.25"/>

  <!-- Dimension annotations on detail -->
  <text x="280" y="922" font-size="7.5" fill="#1a252f" text-anchor="middle">▲ 600 ▲</text>
  <text x="145" y="887" font-size="7.5" fill="#555" text-anchor="end">1200↓</text>
  <text x="280" y="930" font-size="7.5" fill="#555" text-anchor="middle">75mm blinding concrete (C10)</text>

  <!-- ══════════════════════════════════════════
       GENERAL NOTES
  ══════════════════════════════════════════ -->
  <rect x="460" y="820" width="620" height="118" fill="white" stroke="#1a252f" stroke-width="1.5" rx="3"/>
  <rect x="460" y="820" width="620" height="18" fill="#2c3e50"/>
  <text x="770" y="833" font-size="9" font-weight="bold" fill="white" text-anchor="middle">GENERAL NOTES &amp; SPECIFICATION</text>
  <g font-size="8.5" fill="#333">
    <text x="470" y="851">1. ALL WORK SHALL COMPLY WITH BS EN 1997-1 (EUROCODE 7) AND BS 8004.</text>
    <text x="470" y="864">2. Concrete grade: C25/30 (fck=25 MPa) minimum — all structural elements.</text>
    <text x="470" y="877">3. Reinforcement: Grade B500B — Min. lap length = 40 × bar diameter.</text>
    <text x="470" y="890">4. Minimum cover to reinforcement: 50mm to all exposed faces; 40mm internal.</text>
    <text x="470" y="903">5. Foundation depth minimum 1200mm below finished ground level (frost protection).</text>
    <text x="470" y="916">6. All dimensions are in millimetres unless otherwise noted.</text>
    <text x="470" y="929">7. Contractor to verify subsoil conditions before pouring concrete — Report to SE.</text>
  </g>

  <!-- ══════════════════════════════════════════
       SCALE BAR
  ══════════════════════════════════════════ -->
  <g transform="translate(1110, 730)">
    <text x="0" y="-5" font-size="9" fill="#1a252f" font-weight="bold">SCALE 1:100</text>
    <rect x="0" y="0" width="40" height="10" fill="#1a252f"/>
    <rect x="40" y="0" width="40" height="10" fill="white" stroke="#1a252f" stroke-width="1"/>
    <rect x="80" y="0" width="40" height="10" fill="#1a252f"/>
    <rect x="120" y="0" width="40" height="10" fill="white" stroke="#1a252f" stroke-width="1"/>
    <line x1="0" y1="12" x2="160" y2="12" stroke="#1a252f" stroke-width="0.5"/>
    <text x="0" y="22" font-size="8" fill="#1a252f" text-anchor="middle">0</text>
    <text x="40" y="22" font-size="8" fill="#1a252f" text-anchor="middle">4m</text>
    <text x="80" y="22" font-size="8" fill="#1a252f" text-anchor="middle">8m</text>
    <text x="120" y="22" font-size="8" fill="#1a252f" text-anchor="middle">12m</text>
    <text x="160" y="22" font-size="8" fill="#1a252f" text-anchor="middle">16m</text>
  </g>

</svg>
