<svg xmlns="http://www.w3.org/2000/svg" width="1700" height="950" viewBox="0 0 1700 950">
  <defs>
    <marker id="arrow" markerWidth="8" markerHeight="8" refX="6" refY="4" orient="auto">
      <path d="M0,0 L8,4 L0,8 Z" fill="#dc2626"/>
    </marker>
  </defs>
  <rect width="1700" height="950" fill="#faf5ff"/>
  <rect x="20" y="20" width="1660" height="910" fill="none" stroke="#7c3aed" stroke-width="3"/>
  <!-- Title Block -->
  <rect x="1300" y="20" width="380" height="910" fill="none" stroke="#7c3aed" stroke-width="2"/>
  <text x="1490" y="55" font-size="18" fill="#7c3aed" font-family="sans-serif" font-weight="bold" text-anchor="middle">PROJECT</text>
  <text x="1490" y="75" font-size="13" fill="#333" font-family="sans-serif" text-anchor="middle">APEX STEEL INDUSTRIAL COMPLEX</text>
  <line x1="1300" y1="90" x2="1680" y2="90" stroke="#7c3aed" stroke-width="1"/>
  <text x="1490" y="115" font-size="15" fill="#7c3aed" font-family="sans-serif" font-weight="bold" text-anchor="middle">DRAWING TITLE</text>
  <text x="1490" y="135" font-size="13" fill="#333" font-family="sans-serif" text-anchor="middle">STEEL RAFTER ERECTION PLAN</text>
  <line x1="1300" y1="150" x2="1680" y2="150" stroke="#7c3aed" stroke-width="1"/>
  <text x="1310" y="175" font-size="12" fill="#333" font-family="sans-serif">Drawing No: STR-RAF-004</text>
  <text x="1310" y="195" font-size="12" fill="#333" font-family="sans-serif">Scale: 1:100</text>
  <text x="1310" y="215" font-size="12" fill="#333" font-family="sans-serif">Rev: 01</text>
  <text x="1310" y="235" font-size="12" fill="#333" font-family="sans-serif">Date: 2026-05-10</text>
  <line x1="1300" y1="250" x2="1680" y2="250" stroke="#7c3aed" stroke-width="1"/>
  <text x="1310" y="270" font-size="12" fill="#333" font-family="sans-serif">LEGEND:</text>
  <line x1="1315" y1="285" x2="1355" y2="285" stroke="#7c3aed" stroke-width="7"/>
  <text x="1365" y="290" font-size="11" fill="#333" font-family="sans-serif">Ridge Beam (RB)</text>
  <line x1="1315" y1="310" x2="1355" y2="310" stroke="#a855f7" stroke-width="4"/>
  <text x="1365" y="315" font-size="11" fill="#333" font-family="sans-serif">Rafter (RF)</text>
  <line x1="1315" y1="335" x2="1355" y2="335" stroke="#f59e0b" stroke-width="2.5" stroke-dasharray="8 4"/>
  <text x="1365" y="340" font-size="11" fill="#333" font-family="sans-serif">Purlin (PL)</text>
  <line x1="1315" y1="358" x2="1355" y2="368" stroke="#ef4444" stroke-width="1.5" stroke-dasharray="5 3"/>
  <text x="1365" y="365" font-size="11" fill="#333" font-family="sans-serif">Bracing (BR)</text>
  <text x="1310" y="400" font-size="11" fill="#333" font-family="sans-serif">RAFTER SCHEDULE:</text>
  <text x="1310" y="418" font-size="10" fill="#333" font-family="sans-serif">RF1: UB203x133x25 kg/m</text>
  <text x="1310" y="436" font-size="10" fill="#333" font-family="sans-serif">RF2: CHS114.3x5 (hip)</text>
  <text x="1310" y="454" font-size="10" fill="#333" font-family="sans-serif">PL1-4: RHS100x50x4</text>
  <text x="1310" y="483" font-size="11" fill="#333" font-family="sans-serif">NOTES:</text>
  <text x="1310" y="501" font-size="10" fill="#333" font-family="sans-serif">1. Roof pitch: 1:10.</text>
  <text x="1310" y="519" font-size="10" fill="#333" font-family="sans-serif">2. Wind uplift per AS1170.2.</text>
  <text x="1310" y="537" font-size="10" fill="#333" font-family="sans-serif">3. All lap splices min. 2 bolts.</text>
  <text x="1310" y="555" font-size="10" fill="#333" font-family="sans-serif">4. Anti-sag bars: mid-span.</text>
  <!-- Main Drawing -->
  <text x="640" y="55" font-size="26" fill="#7c3aed" font-family="sans-serif" font-weight="bold" text-anchor="middle">STEEL RAFTER ERECTION PLAN  –  ROOF LEVEL</text>
  <line x1="200" y1="200" x2="420" y2="330" stroke="#ef4444" stroke-width="1.5" stroke-dasharray="6 4"/><line x1="420" y1="200" x2="200" y2="330" stroke="#ef4444" stroke-width="1.5" stroke-dasharray="6 4"/><line x1="200" y1="330" x2="420" y2="460" stroke="#ef4444" stroke-width="1.5" stroke-dasharray="6 4"/><line x1="420" y1="330" x2="200" y2="460" stroke="#ef4444" stroke-width="1.5" stroke-dasharray="6 4"/><line x1="200" y1="460" x2="420" y2="590" stroke="#ef4444" stroke-width="1.5" stroke-dasharray="6 4"/><line x1="420" y1="460" x2="200" y2="590" stroke="#ef4444" stroke-width="1.5" stroke-dasharray="6 4"/><line x1="200" y1="590" x2="420" y2="720" stroke="#ef4444" stroke-width="1.5" stroke-dasharray="6 4"/><line x1="420" y1="590" x2="200" y2="720" stroke="#ef4444" stroke-width="1.5" stroke-dasharray="6 4"/>
  <line x1="200" y1="265" x2="1300" y2="265"
             stroke="#f59e0b" stroke-width="2.5" stroke-dasharray="10 5"/>
       <text x="1310" y="270" font-size="10" fill="#b45309" font-family="sans-serif">PL-1 RHS100x50x4</text><line x1="200" y1="395" x2="1300" y2="395"
             stroke="#f59e0b" stroke-width="2.5" stroke-dasharray="10 5"/>
       <text x="1310" y="400" font-size="10" fill="#b45309" font-family="sans-serif">PL-2 RHS100x50x4</text><line x1="200" y1="525" x2="1300" y2="525"
             stroke="#f59e0b" stroke-width="2.5" stroke-dasharray="10 5"/>
       <text x="1310" y="530" font-size="10" fill="#b45309" font-family="sans-serif">PL-3 RHS100x50x4</text><line x1="200" y1="655" x2="1300" y2="655"
             stroke="#f59e0b" stroke-width="2.5" stroke-dasharray="10 5"/>
       <text x="1310" y="660" font-size="10" fill="#b45309" font-family="sans-serif">PL-4 RHS100x50x4</text>
  <line x1="200" y1="200" x2="200" y2="185" stroke="#a855f7" stroke-width="4" stroke-linecap="round"/>
         <text x="205" y="180" font-size="9" fill="#7c3aed" font-family="sans-serif">RF-A1</text><line x1="200" y1="330" x2="200" y2="185" stroke="#a855f7" stroke-width="4" stroke-linecap="round"/>
         <text x="205" y="310" font-size="9" fill="#7c3aed" font-family="sans-serif">RF-A2</text><line x1="200" y1="460" x2="200" y2="185" stroke="#a855f7" stroke-width="4" stroke-linecap="round"/>
         <text x="205" y="440" font-size="9" fill="#7c3aed" font-family="sans-serif">RF-A3</text><line x1="200" y1="590" x2="200" y2="185" stroke="#a855f7" stroke-width="4" stroke-linecap="round"/>
         <text x="205" y="570" font-size="9" fill="#7c3aed" font-family="sans-serif">RF-A4</text><line x1="200" y1="720" x2="200" y2="185" stroke="#a855f7" stroke-width="4" stroke-linecap="round"/>
         <text x="205" y="700" font-size="9" fill="#7c3aed" font-family="sans-serif">RF-A5</text><line x1="420" y1="200" x2="420" y2="185" stroke="#a855f7" stroke-width="4" stroke-linecap="round"/>
         <text x="425" y="180" font-size="9" fill="#7c3aed" font-family="sans-serif">RF-B1</text><line x1="420" y1="330" x2="420" y2="185" stroke="#a855f7" stroke-width="4" stroke-linecap="round"/>
         <text x="425" y="310" font-size="9" fill="#7c3aed" font-family="sans-serif">RF-B2</text><line x1="420" y1="460" x2="420" y2="185" stroke="#a855f7" stroke-width="4" stroke-linecap="round"/>
         <text x="425" y="440" font-size="9" fill="#7c3aed" font-family="sans-serif">RF-B3</text><line x1="420" y1="590" x2="420" y2="185" stroke="#a855f7" stroke-width="4" stroke-linecap="round"/>
         <text x="425" y="570" font-size="9" fill="#7c3aed" font-family="sans-serif">RF-B4</text><line x1="420" y1="720" x2="420" y2="185" stroke="#a855f7" stroke-width="4" stroke-linecap="round"/>
         <text x="425" y="700" font-size="9" fill="#7c3aed" font-family="sans-serif">RF-B5</text><line x1="640" y1="200" x2="640" y2="185" stroke="#a855f7" stroke-width="4" stroke-linecap="round"/>
         <text x="645" y="180" font-size="9" fill="#7c3aed" font-family="sans-serif">RF-C1</text><line x1="640" y1="330" x2="640" y2="185" stroke="#a855f7" stroke-width="4" stroke-linecap="round"/>
         <text x="645" y="310" font-size="9" fill="#7c3aed" font-family="sans-serif">RF-C2</text><line x1="640" y1="460" x2="640" y2="185" stroke="#a855f7" stroke-width="4" stroke-linecap="round"/>
         <text x="645" y="440" font-size="9" fill="#7c3aed" font-family="sans-serif">RF-C3</text><line x1="640" y1="590" x2="640" y2="185" stroke="#a855f7" stroke-width="4" stroke-linecap="round"/>
         <text x="645" y="570" font-size="9" fill="#7c3aed" font-family="sans-serif">RF-C4</text><line x1="640" y1="720" x2="640" y2="185" stroke="#a855f7" stroke-width="4" stroke-linecap="round"/>
         <text x="645" y="700" font-size="9" fill="#7c3aed" font-family="sans-serif">RF-C5</text><line x1="860" y1="200" x2="860" y2="185" stroke="#a855f7" stroke-width="4" stroke-linecap="round"/>
         <text x="865" y="180" font-size="9" fill="#7c3aed" font-family="sans-serif">RF-D1</text><line x1="860" y1="330" x2="860" y2="185" stroke="#a855f7" stroke-width="4" stroke-linecap="round"/>
         <text x="865" y="310" font-size="9" fill="#7c3aed" font-family="sans-serif">RF-D2</text><line x1="860" y1="460" x2="860" y2="185" stroke="#a855f7" stroke-width="4" stroke-linecap="round"/>
         <text x="865" y="440" font-size="9" fill="#7c3aed" font-family="sans-serif">RF-D3</text><line x1="860" y1="590" x2="860" y2="185" stroke="#a855f7" stroke-width="4" stroke-linecap="round"/>
         <text x="865" y="570" font-size="9" fill="#7c3aed" font-family="sans-serif">RF-D4</text><line x1="860" y1="720" x2="860" y2="185" stroke="#a855f7" stroke-width="4" stroke-linecap="round"/>
         <text x="865" y="700" font-size="9" fill="#7c3aed" font-family="sans-serif">RF-D5</text><line x1="1080" y1="200" x2="1080" y2="185" stroke="#a855f7" stroke-width="4" stroke-linecap="round"/>
         <text x="1085" y="180" font-size="9" fill="#7c3aed" font-family="sans-serif">RF-E1</text><line x1="1080" y1="330" x2="1080" y2="185" stroke="#a855f7" stroke-width="4" stroke-linecap="round"/>
         <text x="1085" y="310" font-size="9" fill="#7c3aed" font-family="sans-serif">RF-E2</text><line x1="1080" y1="460" x2="1080" y2="185" stroke="#a855f7" stroke-width="4" stroke-linecap="round"/>
         <text x="1085" y="440" font-size="9" fill="#7c3aed" font-family="sans-serif">RF-E3</text><line x1="1080" y1="590" x2="1080" y2="185" stroke="#a855f7" stroke-width="4" stroke-linecap="round"/>
         <text x="1085" y="570" font-size="9" fill="#7c3aed" font-family="sans-serif">RF-E4</text><line x1="1080" y1="720" x2="1080" y2="185" stroke="#a855f7" stroke-width="4" stroke-linecap="round"/>
         <text x="1085" y="700" font-size="9" fill="#7c3aed" font-family="sans-serif">RF-E5</text><line x1="1300" y1="200" x2="1300" y2="185" stroke="#a855f7" stroke-width="4" stroke-linecap="round"/>
         <text x="1305" y="180" font-size="9" fill="#7c3aed" font-family="sans-serif">RF-F1</text><line x1="1300" y1="330" x2="1300" y2="185" stroke="#a855f7" stroke-width="4" stroke-linecap="round"/>
         <text x="1305" y="310" font-size="9" fill="#7c3aed" font-family="sans-serif">RF-F2</text><line x1="1300" y1="460" x2="1300" y2="185" stroke="#a855f7" stroke-width="4" stroke-linecap="round"/>
         <text x="1305" y="440" font-size="9" fill="#7c3aed" font-family="sans-serif">RF-F3</text><line x1="1300" y1="590" x2="1300" y2="185" stroke="#a855f7" stroke-width="4" stroke-linecap="round"/>
         <text x="1305" y="570" font-size="9" fill="#7c3aed" font-family="sans-serif">RF-F4</text><line x1="1300" y1="720" x2="1300" y2="185" stroke="#a855f7" stroke-width="4" stroke-linecap="round"/>
         <text x="1305" y="700" font-size="9" fill="#7c3aed" font-family="sans-serif">RF-F5</text>
  <line x1="200" y1="185" x2="1300" y2="185" stroke="#7c3aed" stroke-width="7" stroke-linecap="round"/>
    <text x="750" y="170" font-size="12" fill="#7c3aed" font-family="sans-serif" text-anchor="middle" font-weight="bold">RIDGE BEAM RB1 – UB254x146x37</text>
  <circle cx="200" cy="780" r="18" fill="#fff" stroke="#7c3aed" stroke-width="2"/>
     <text x="200" y="786" font-size="16" fill="#7c3aed" font-family="sans-serif" text-anchor="middle" font-weight="bold">A</text><circle cx="420" cy="780" r="18" fill="#fff" stroke="#7c3aed" stroke-width="2"/>
     <text x="420" y="786" font-size="16" fill="#7c3aed" font-family="sans-serif" text-anchor="middle" font-weight="bold">B</text><circle cx="640" cy="780" r="18" fill="#fff" stroke="#7c3aed" stroke-width="2"/>
     <text x="640" y="786" font-size="16" fill="#7c3aed" font-family="sans-serif" text-anchor="middle" font-weight="bold">C</text><circle cx="860" cy="780" r="18" fill="#fff" stroke="#7c3aed" stroke-width="2"/>
     <text x="860" y="786" font-size="16" fill="#7c3aed" font-family="sans-serif" text-anchor="middle" font-weight="bold">D</text><circle cx="1080" cy="780" r="18" fill="#fff" stroke="#7c3aed" stroke-width="2"/>
     <text x="1080" y="786" font-size="16" fill="#7c3aed" font-family="sans-serif" text-anchor="middle" font-weight="bold">E</text><circle cx="1300" cy="780" r="18" fill="#fff" stroke="#7c3aed" stroke-width="2"/>
     <text x="1300" y="786" font-size="16" fill="#7c3aed" font-family="sans-serif" text-anchor="middle" font-weight="bold">F</text>
  <circle cx="120" cy="200" r="18" fill="#fff" stroke="#7c3aed" stroke-width="2"/>
     <text x="120" y="206" font-size="16" fill="#7c3aed" font-family="sans-serif" text-anchor="middle" font-weight="bold">1</text><circle cx="120" cy="330" r="18" fill="#fff" stroke="#7c3aed" stroke-width="2"/>
     <text x="120" y="336" font-size="16" fill="#7c3aed" font-family="sans-serif" text-anchor="middle" font-weight="bold">2</text><circle cx="120" cy="460" r="18" fill="#fff" stroke="#7c3aed" stroke-width="2"/>
     <text x="120" y="466" font-size="16" fill="#7c3aed" font-family="sans-serif" text-anchor="middle" font-weight="bold">3</text><circle cx="120" cy="590" r="18" fill="#fff" stroke="#7c3aed" stroke-width="2"/>
     <text x="120" y="596" font-size="16" fill="#7c3aed" font-family="sans-serif" text-anchor="middle" font-weight="bold">4</text><circle cx="120" cy="720" r="18" fill="#fff" stroke="#7c3aed" stroke-width="2"/>
     <text x="120" y="726" font-size="16" fill="#7c3aed" font-family="sans-serif" text-anchor="middle" font-weight="bold">5</text>
  <line x1="100" y1="400" x2="170" y2="340" stroke="#dc2626" stroke-width="2" marker-end="url(#arrow)"/>
    <text x="55" y="420" font-size="13" fill="#dc2626" font-family="sans-serif">SLOPE: 1:10 (5.7°)</text>
  <!-- North Arrow -->
  <polygon points="80,870 90,840 100,870" fill="#7c3aed"/>
  <text x="90" y="898" font-size="14" fill="#7c3aed" font-family="sans-serif" text-anchor="middle" font-weight="bold">N</text>
</svg>